<svg viewBox="0 0 800 800" xmlns="http://www.w3.org/2000/svg"><path d="M493.58381069149345,475.4110892823029 L493.3645619765262,422.72378482107393 M660.0255313811601,378.6774751681859 L660.1762483829802,326.2012523474241 M493.58381069149345,475.4110892823029 L660.0255313811601,378.6774751681859 M493.3645619765262,422.72378482107393 L660.1762483829802,326.2012523474241 M625.0921737093386,358.5086917126622 L625.165487760717,306.0769156491166 M660.0255313811601,378.6774751681859 L625.0921737093386,358.5086917126622 M660.1762483829802,326.2012523474241 L625.165487760717,306.0769156491166 M617.6455258827384,356.7261718497473 L617.7023861041295,304.29833124247546 M625.0921737093386,358.5086917126622 L623.0384065971338,358.3917365985228 M623.0384065971338,358.3917365985228 L621.0630291891671,358.04537872893394 M621.0630291891671,358.04537872893394 L619.2420542706336,357.4829672116278 M619.2420542706336,357.4829672116278 L617.6455258827384,356.7261718497473 M625.165487760717,306.0769156491166 L623.107184399914,305.9602187129917 M623.107184399914,305.9602187129917 L621.1274427017673,305.6146254569314 M621.1274427017673,305.6146254569314 L619.3024436102024,305.0534556040229 M619.3024436102024,305.0534556040229 L617.7023861041295,304.29833124247546 M614.5548867349926,352.42498624149516 L614.6049044373472,300.006646658877 M617.6455258827384,356.7261718497473 L616.3348222047343,355.8041441651649 M616.3348222047343,355.8041441651649 L615.3602905673888,354.75238550575995 M615.3602905673888,354.75238550575995 L614.7593139558958,353.6113708724652 M614.7593139558958,353.6113708724652 L614.5548867349926,352.42498624149516 M617.7023861041295,304.29833124247546 L616.3887840910186,303.3783396769985 M616.3887840910186,303.3783396769985 L615.4120961826941,302.3289040067828 M615.4120961826941,302.3289040067828 L614.8097879325678,301.19040996309633 M614.8097879325678,301.19040996309633 L614.6049044373472,300.006646658877 M625.0582464868723,346.3474981881498 L625.1314105988871,293.94259504094487 M614.5548867349926,352.42498624149516 L614.8160459833257,351.07208085322924 M614.8160459833257,351.07208085322924 L615.5914692040569,349.78730030818423 M615.5914692040569,349.78730030818423 L616.8421370744078,348.6350062468635 M616.8421370744078,348.6350062468635 L618.5052570806129,347.67288595087444 M618.5052570806129,347.67288595087444 L620.497433194537,346.94908194773103 M620.497433194537,346.94908194773103 L622.7188474056114,346.4997983485176 M622.7188474056114,346.4997983485176 L625.0582464868723,346.3474981881498 M614.6049044373472,300.006646658877 L614.8666343704609,298.6567311625237 M614.8666343704609,298.6567311625237 L615.6437633126038,297.3747905824814 M615.6437633126038,297.3747905824814 L616.8971858016957,296.2250441491787 M616.8971858016957,296.2250441491787 L618.5639708516496,295.26505139925837 M618.5639708516496,295.26505139925837 L620.5605386524742,294.5428481769884 M620.5605386524742,294.5428481769884 L622.7868513171666,294.09455832087417 M622.7868513171666,294.09455832087417 L625.1314105988871,293.94259504094487 M749.4754777521125,274.35679668813816 L749.8210154104809,222.11209513968862 M625.0582464868723,346.3474981881498 L749.4754777521125,274.35679668813816 M625.1314105988871,293.94259504094487 L749.8210154104809,222.11209513968862 M704.2066354059193,248.56131869195718 L704.45237034711,196.37448714804327 M749.4754777521125,274.35679668813816 L704.2066354059193,248.56131869195718 M749.8210154104809,222.11209513968862 L704.45237034711,196.37448714804327 M614.2593511979383,197.30678974113397 L614.308071334362,145.2356747054178 M704.2066354059193,248.56131869195718 L614.2593511979383,197.30678974113397 M704.45237034711,196.37448714804327 L614.308071334362,145.2356747054178 M569.4811149770013,222.87823062737988 L569.43218210997,170.74926176318505 M614.2593511979383,197.30678974113397 L569.4811149770013,222.87823062737988 M614.308071334362,145.2356747054178 L569.43218210997,170.74926176318505 M648.9490162351461,268.3588156776834 L649.0740594603405,216.12754811196254 M569.4811149770013,222.87823062737988 L648.9490162351461,268.3588156776834 M569.43218210997,170.74926176318505 L649.0740594603405,216.12754811196254 M656.3450063881885,270.1149520949319 L656.4862800731564,217.8797498419138 M648.9490162351461,268.3588156776834 L650.9875042478179,268.47400349523434 M650.9875042478179,268.47400349523434 L652.9488734453797,268.81516796271296 M652.9488734453797,268.81516796271296 L654.7578603661016,269.3692277864761 M654.7578603661016,269.3692277864761 L656.3450063881885,270.1149520949319 M649.0740594603405,216.12754811196254 L651.1170163876467,216.2424778120332 M651.1170163876467,216.2424778120332 L653.0826881326456,216.58287781332217 M653.0826881326456,216.58287781332217 L654.895646347928,217.13569621627948 M654.895646347928,217.13569621627948 L656.4862800731564,217.8797498419138 M659.4292542963572,274.356801668807 L659.5773418562026,222.11210010920757 M656.3450063881885,270.1149520949319 L657.6493501778893,271.02374344340745 M657.6493501778893,271.02374344340745 L658.620733551197,272.06074868885656 M658.620733551197,272.06074868885656 L659.221770627248,273.18616911136036 M659.221770627248,273.18616911136036 L659.4292542963572,274.356801668807 M656.4862800731564,217.8797498419138 L657.7934940659312,218.78650545888314 M657.7934940659312,218.78650545888314 L658.7670197210248,219.82118814184264 M658.7670197210248,219.82118814184264 L659.3693885655,220.94408843056493 M659.3693885655,220.94408843056493 L659.5773418562026,222.11210010920757 M649.007007469271,280.36087970880686 L649.1323052812262,228.10274385412276 M659.4292542963572,274.356801668807 L659.1748229806944,275.6923072794551 M659.1748229806944,275.6923072794551 L658.4089127637471,276.9611248152774 M658.4089127637471,276.9611248152774 L657.1697893001,278.099567428608 M657.1697893001,278.099567428608 L655.5195160249184,279.0504580164484 M655.5195160249184,279.0504580164484 L653.5408395489876,279.76601708479944 M653.5408395489876,279.76601708479944 L651.3330550725683,280.21027014183306 M651.3330550725683,280.21027014183306 L649.007007469271,280.36087970880686 M659.5773418562026,222.11210010920757 L659.3223693446012,223.44461633362607 M659.3223693446012,223.44461633362607 L658.554795173814,224.71059436920189 M658.554795173814,224.71059436920189 L657.3129678262519,225.84648975716965 M657.3129678262519,225.84648975716965 L655.6590859953037,226.79525312859636 M655.6590859953037,226.79525312859636 L653.6760772262407,227.50921165630177 M653.6760772262407,227.50921165630177 L651.4634542900069,227.95247111708875 M651.4634542900069,227.95247111708875 L649.1323052812262,228.10274385412276 M579.7874690545405,320.2370712277718 L579.7608176765648,267.8900500364631 M649.007007469271,280.36087970880686 L579.7874690545405,320.2370712277718 M649.1323052812262,228.10274385412276 L579.7608176765648,267.8900500364631 M569.2840974520702,326.2878838625731 L569.2342995857778,273.927426670202 M579.7874690545405,320.2370712277718 L579.5230117001279,321.5829698829505 M579.5230117001279,321.5829698829505 L578.7455404803875,322.8616623018921 M578.7455404803875,322.8616623018921 L577.4938995438515,324.0089660636184 M577.4938995438515,324.0089660636184 L575.8307778387714,324.96725994110943 M575.8307778387714,324.96725994110943 L573.8395713875104,325.688389463966 M573.8395713875104,325.688389463966 L571.6202017727115,326.1361015464749 M571.6202017727115,326.1361015464749 L569.2840974520702,326.2878838625731 M579.7608176765648,267.8900500364631 L579.4957750759647,269.232958912928 M579.4957750759647,269.232958912928 L578.7165890891831,270.50881146651017 M578.7165890891831,270.50881146651017 L577.4621892350165,271.65356768113287 M577.4621892350165,271.65356768113287 L575.7954024749139,272.6097340748696 M575.7954024749139,272.6097340748696 L573.799808613055,273.32926286075644 M573.799808613055,273.32926286075644 L571.5755495676829,273.775981225243 M571.5755495676829,273.775981225243 L569.2342995857778,273.927426670202 M561.8659449899502,324.515002048522 L561.7998191189869,272.15848018609637 M569.2840974520702,326.2878838625731 L567.2364361365321,326.171559992738 M567.2364361365321,326.171559992738 L565.2680270906974,325.8270752114652 M565.2680270906974,325.8270752114652 L563.4546124132689,325.2677050755485 M563.4546124132689,325.2677050755485 L561.8659449899502,324.515002048522 M569.2342995857778,273.927426670202 L567.1821289882153,273.8113609729896 M567.1821289882153,273.8113609729896 L565.2093864224604,273.4676407807808 M565.2093864224604,273.4676407807808 L563.3919809539059,272.90951226877087 M563.3919809539059,272.90951226877087 L561.7998191189869,272.15848018609637 M558.8037825415147,320.2370712277718 L558.730939833898,267.8900500364631 M561.8659449899502,324.515002048522 L560.5631004595732,323.59795983438687 M560.5631004595732,323.59795983438687 L559.596123934709,322.5518876403846 M559.596123934709,322.5518876403846 L559.0021081608043,321.41704147989765 M559.0021081608043,321.41704147989765 L558.8037825415147,320.2370712277718 M561.7998191189869,272.15848018609637 L560.494110948041,271.24347402054406 M560.494110948041,271.24347402054406 L559.525011500122,270.1997247321765 M559.525011500122,270.1997247321765 L558.9296948079918,269.0673990669057 M558.9296948079918,269.0673990669057 L558.730939833898,267.8900500364631 M524.2118401322447,300.26540396598773 L524.0631016936279,247.9628266646414 M558.8037825415147,320.2370712277718 L524.2118401322447,300.26540396598773 M558.730939833898,267.8900500364631 L524.0631016936279,247.9628266646414 M357.77898056523156,395.725424089999 L357.2603354169981,343.2117495104991 M524.2118401322447,300.26540396598773 L357.77898056523156,395.725424089999 M524.0631016936279,247.9628266646414 L357.2603354169981,343.2117495104991 M114.35384974843572,615.0503364041826 L113.27645403733572,562.0644388319037 M357.77898056523156,395.725424089999 L341.745890069309,392.78679205018176 M341.745890069309,392.78679205018176 L325.37079942132704,390.5564353019377 M325.37079942132704,390.5564353019377 L308.74288418835033,389.04608234871546 M308.74288418835033,389.04608234871546 L291.95263277518706,388.263660429992 M291.95263277518706,388.263660429992 L275.09127923210093,388.2133002566626 M275.09127923210093,388.2133002566626 L258.25044281532644,388.895247326362 M258.25044281532644,388.895247326362 L241.5216245938132,390.3059284307975 M241.5216245938132,390.3059284307975 L224.99581916894374,392.4379347157436 M224.99581916894374,392.4379347157436 L208.76300002524806,395.2800483602073 M208.76300002524806,395.2800483602073 L192.91175670163503,398.8173132150339 M192.91175670163503,398.8173132150339 L177.5287513138914,403.0310787296337 M177.5287513138914,403.0310787296337 L162.698394446318,407.89906851622334 M162.698394446318,407.89906851622334 L148.50232522526153,413.39552018022556 M148.50232522526153,413.39552018022556 L135.0190686465413,419.4912241084249 M135.0190686465413,419.4912241084249 L122.32355324864591,426.1537117033181 M122.32355324864591,426.1537117033181 L110.48670591283332,433.34739045326046 M110.48670591283332,433.34739045326046 L99.57515662826006,441.033687886782 M99.57515662826006,441.033687886782 L89.65071846812356,449.1712157171071 M89.65071846812356,449.1712157171071 L80.77025686785186,457.7159861649012 M80.77025686785186,457.7159861649012 L72.98507212079227,466.62159966545426 M72.98507212079227,466.62159966545426 L66.34072254200476,475.8395385835763 M66.34072254200476,475.8395385835763 L60.87671962399088,485.3193109782211 M60.87671962399088,485.3193109782211 L56.62637636045599,495.0086968485523 M56.62637636045599,495.0086968485523 L53.616249353711964,504.8541867066125 M53.616249353711964,504.8541867066125 L51.86628936752004,514.8010086274891 M51.86628936752004,514.8010086274891 L51.38936219982895,524.7936796334636 M51.38936219982895,524.7936796334636 L52.19140707910361,534.7760576970476 M52.19140707910361,534.7760576970476 L54.27101461025023,544.6918632608304 M54.27101461025023,544.6918632608304 L57.619530565756236,554.4849293094046 M57.619530565756236,554.4849293094046 L62.22117715138228,564.0994250546239 M62.22117715138228,564.0994250546239 L68.0527259981103,573.4803720804913 M68.0527259981103,573.4803720804913 L75.08387193689055,582.5738159076813 M75.08387193689055,582.5738159076813 L83.27722038997473,591.3272381481368 M83.27722038997473,591.3272381481368 L92.58841267467483,599.6898810245664 M92.58841267467483,599.6898810245664 L102.96645402890698,607.6130206275463 M102.96645402890698,607.6130206275463 L114.35384974843572,615.0503364041826 M357.2603354169981,343.2117495104991 L341.19186293770224,340.2795655217277 M341.19186293770224,340.2795655217277 L324.7806154496526,338.0541048365552 M324.7806154496526,338.0541048365552 L308.1159592992568,336.54706844548843 M308.1159592992568,336.54706844548843 L291.2885763184411,335.76636496791184 M291.2885763184411,335.76636496791184 L274.3898955517587,335.716115408905 M274.3898955517587,335.716115408905 L257.5117322057613,336.3965646859737 M257.5117322057613,336.3965646859737 L240.74578332205633,337.80414799137907 M240.74578332205633,337.80414799137907 L224.18323882153382,339.93147387485004 M224.18323882153382,339.93147387485004 L207.9142658923221,342.7673508343593 M207.9142658923221,342.7673508343593 L192.0276455225825,346.2968577551598 M192.0276455225825,346.2968577551598 L176.61022797377993,350.5013876817812 M176.61022797377993,350.5013876817812 L161.74660809176862,355.3587161607305 M161.74660809176862,355.3587161607305 L147.5186043414012,360.84314068203065 M147.5186043414012,360.84314068203065 L134.00491547430084,366.92551929017935 M134.00491547430084,366.92551929017935 L121.28063719687259,373.5734583063893 M121.28063719687259,373.5734583063893 L109.41685611413669,380.75144699761654 M109.41685611413669,380.75144699761654 L98.4803538551028,388.4210011067974 M98.4803538551028,388.4210011067974 L88.53308587987283,396.5408265279222 M88.53308587987283,396.5408265279222 L79.63205042100003,405.0670350469969 M79.63205042100003,405.0670350469969 L71.82866953388401,413.95333153349134 M71.82866953388401,413.95333153349134 L65.16861175763859,423.15130691567146 M65.16861175763859,423.15130691567146 L59.69148647180208,432.61058153938944 M59.69148647180208,432.61058153938944 L55.43069172945866,442.27905079580603 M55.43069172945866,442.27905079580603 L52.41285492622478,452.1033226739223 M52.41285492622478,452.1033226739223 L50.65798351867983,462.0287446933394 M50.65798351867983,462.0287446933394 L50.17898458951919,471.99995405618563 M50.17898458951919,471.99995405618563 L50.98182340068445,481.96092951059325 M50.98182340068445,481.96092951059325 L53.06510014367467,491.85551173943054 M53.06510014367467,491.85551173943054 L56.42015373717203,501.62765290382345 M56.42015373717203,501.62765290382345 L61.03118314541507,511.22163987340184 M61.03118314541507,511.22163987340184 L66.87491939459164,520.5826093101142 M66.87491939459164,520.5826093101142 L73.92099999143164,529.6567189253059 M73.92099999143164,529.6567189253059 L82.13195608404578,538.3915588297791 M82.13195608404578,538.3915588297791 L91.46333787405769,546.7364754509863 M91.46333787405769,546.7364754509863 L101.8640432363797,554.642844309204 M101.8640432363797,554.642844309204 L113.27645403733572,562.0644388319037 M114.35384974843572,615.0503364041826 L126.68699328174222,621.9581694760836 M126.68699328174222,621.9581694760836 L139.89645444558846,628.2958433877782 M139.89645444558846,628.2958433877782 L153.90742808348693,634.0259011497199 M153.90742808348693,634.0259011497199 L168.64009191522086,639.1144076485705 M168.64009191522086,639.1144076485705 L184.0101778507596,643.5311113807088 M184.0101778507596,643.5311113807088 L199.92939599499013,647.2497220003628 M199.92939599499013,647.2497220003628 L216.30597114104023,650.2480711622942 M216.30597114104023,650.2480711622942 L233.04535358936147,652.5081936321319 M233.04535358936147,652.5081936321319 L250.0505319913168,654.016631447215 M250.0505319913168,654.016631447215 L267.2229704239104,654.7643252945822 M267.2229704239104,654.7643252945822 L284.4630550987121,654.7467606620461 M284.4630550987121,654.7467606620461 L301.67060370001644,653.9640980317138 M301.67060370001644,653.9640980317138 L318.7458673575044,652.4209869604626 M318.7458673575044,652.4209869604626 L335.589726338221,650.1267061467754 M335.589726338221,650.1267061467754 L352.1047687021969,647.0949240460541 M352.1047687021969,647.0949240460541 L368.1954605036317,643.3438124454095 M368.1954605036317,643.3438124454095 L383.76904254283284,638.8957340448388 M383.76904254283284,638.8957340448388 L398.7360904704582,633.777157123742 M398.7360904704582,633.777157123742 L413.0108963463688,628.0184641318682 M413.0108963463688,628.0184641318682 L426.5121053350458,621.6538298699467 M426.5121053350458,621.6538298699467 L439.16316436979145,614.7208217709897 M439.16316436979145,614.7208217709897 L450.89280613714897,607.2602836890529 M450.89280613714897,607.2602836890529 L461.6354328616667,599.3159761823315 M461.6354328616667,599.3159761823315 L471.3314484000707,590.9343441264086 M471.3314484000707,590.9343441264086 L479.9275595062808,582.1642123861786 M479.9275595062808,582.1642123861786 L487.3771530274837,573.056432271448 M487.3771530274837,573.056432271448 L493.6403926967472,563.6636058282452 M493.6403926967472,563.6636058282452 L498.68447483969425,554.0397054346291 M498.68447483969425,554.0397054346291 L502.4837397719273,544.2398095681569 M502.4837397719273,544.2398095681569 L505.01972295238244,534.3197096817437 M505.01972295238244,534.3197096817437 L506.28123449556693,524.3356291621093 M506.28123449556693,524.3356291621093 L506.2643462444477,514.343856512978 M506.2643462444477,514.343856512978 L504.9722875220575,504.4004596918752 M504.9722875220575,504.4004596918752 L502.4154738619847,494.56094126254413 M502.4154738619847,494.56094126254413 L498.6112537746448,484.8799846376421 M498.6112537746448,484.8799846376421 L493.58381069149345,475.4110892823029 M113.27645403733572,562.0644388319037 L125.63682501873063,568.9576882411388 M125.63682501873063,568.9576882411388 L138.87557260406618,575.2819977445133 M138.87557260406618,575.2819977445133 L152.9177245503946,580.9999851998826 M152.9177245503946,580.9999851998826 L167.6832786142934,586.0777830087778 M167.6832786142934,586.0777830087778 L183.08777520919978,590.4851996256338 M183.08777520919978,590.4851996256338 L199.04272244300907,594.1959966310209 M199.04272244300907,594.1959966310209 L215.4561339374229,597.1880493355698 M215.4561339374229,597.1880493355698 L232.233241399282,599.4434278065465 M232.233241399282,599.4434278065465 L249.27680832341116,600.9487004622924 M249.27680832341116,600.9487004622924 L266.4880693861883,601.694825733969 M266.4880693861883,601.694825733969 L283.76717835925217,601.6772979476362 M283.76717835925217,601.6772979476362 L301.0137188052822,600.8962772636405 M301.0137188052822,600.8962772636405 L318.12770854480374,599.3564041466552 M318.12770854480374,599.3564041466552 L335.009795996217,597.0669391188453 M335.009795996217,597.0669391188453 L351.56234149053864,594.0415238388994 M351.56234149053864,594.0415238388994 L367.6895880452657,590.2982943818565 M367.6895880452657,590.2982943818565 L383.2985603358127,585.8595694033262 M383.2985603358127,585.8595694033262 L398.29962622379196,580.7517648980696 M398.29962622379196,580.7517648980696 L412.60687931549205,575.0052030937103 M412.60687931549205,575.0052030937103 L426.1387772026593,568.653990777766 M426.1387772026593,568.653990777766 L438.81859122484957,561.7356203043094 M438.81859122484957,561.7356203043094 L450.5748915891057,554.2908535070931 M450.5748915891057,554.2908535070931 L461.341932037971,546.3633626199052 M461.341932037971,546.3633626199052 L471.0599826731831,537.9994982607736 M471.0599826731831,537.9994982607736 L479.67563185066257,529.2479856319845 M479.67563185066257,529.2479856319845 L487.142164147464,520.159571616628 M487.142164147464,520.159571616628 L493.4196572640455,510.78674955647455 M493.4196572640455,510.78674955647455 L498.47523817546664,501.1833795699507 M498.47523817546664,501.1833795699507 L502.2831946249099,491.40442480943466 M502.2831946249099,491.40442480943466 L504.82502622310056,481.5055591182155 M504.82502622310056,481.5055591182155 L506.0895239553064,471.54288654860966 M506.0895239553064,471.54288654860966 L506.072757034636,461.5725753066723 M506.072757034636,461.5725753066723 L504.77796822485374,451.6505726954938 M504.77796822485374,451.6505726954938 L502.2156024416133,441.8322610197784 M502.2156024416133,441.8322610197784 L498.40305276289433,432.17220440283853 M498.40305276289433,432.17220440283853 L493.3645619765262,422.72378482107393 M302.4823286314457,506.434308478842 L301.83522310057356,453.68004247480167 M255.35278479383692,533.6445633002696 L254.59859756424723,480.8318592274036 M302.4823286314457,506.434308478842 L306.4911928989602,509.34408687043424 M306.4911928989602,509.34408687043424 L309.444148120067,512.665552958215 M309.444148120067,512.665552958215 L311.22708460276607,516.27161386487 M311.22708460276607,516.27161386487 L311.7704826785701,520.0240891803459 M311.7704826785701,520.0240891803459 L311.0523129714741,523.7789099806207 M311.0523129714741,523.7789099806207 L309.0990716398024,527.3916279443979 M309.0990716398024,527.3916279443979 L305.9848382553213,530.7230458651451 M305.9848382553213,530.7230458651451 L301.82867189289095,533.6445633002696 M301.82867189289095,533.6445633002696 L296.7900297794632,536.0432665562978 M296.7900297794632,536.0432665562978 L291.0628447339471,537.8262714113955 M291.0628447339471,537.8262714113955 L284.86785077381995,538.9245009433151 M284.86785077381995,538.9245009433151 L278.4440893695245,539.295373229843 M278.4440893695245,539.295373229843 L272.0395897306111,538.9244918324368 M272.0395897306111,538.9244918324368 L265.9015754370519,537.8262658807965 M265.9015754370519,537.8262658807965 L260.26690734553335,536.0432655805979 M260.26690734553335,536.0432655805979 L255.35278479383692,533.6445633002696 M301.83522310057356,453.68004247480167 L305.85289643625873,456.5835585897455 M305.85289643625873,456.5835585897455 L308.8122813541338,459.89788022051835 M308.8122813541338,459.89788022051835 L310.5990181657062,463.4961891344436 M310.5990181657062,463.4961891344436 L311.1434367124954,467.2406028220521 M311.1434367124954,467.2406028220521 L310.4234632655069,470.9873621758752 M310.4234632655069,470.9873621758752 L308.4656582846466,474.59232871144627 M308.4656582846466,474.59232871144627 L305.34427238276595,477.91660304409504 M305.34427238276595,477.91660304409504 L301.1786367171102,480.8318592274036 M301.1786367171102,480.8318592274036 L296.1285713815082,483.2254240645211 M296.1285713815082,483.2254240645211 L290.3884494371966,485.004610809282 M290.3884494371966,485.004610809282 L284.17950501193707,486.1004891885025 M284.17950501193707,486.1004891885025 L277.74132008247443,486.4705675912959 M277.74132008247443,486.4705675912959 L271.32248335039776,486.1004800971276 M271.32248335039776,486.1004800971276 L265.1707743863809,485.0046052905244 M265.1707743863809,485.0046052905244 L259.5235846559562,483.2254230909109 M259.5235846559562,483.2254230909109 L254.59859756424723,480.8318592274036 M255.35278479383692,533.6445633002696 L251.34819342831696,530.7230494395603 M251.34819342831696,530.7230494395603 L248.40684818502257,527.3916256710254 M248.40684818502257,527.3916256710254 L246.6410911114529,523.7789008925739 M246.6410911114529,523.7789008925739 L246.117775300152,520.0240995602212 M246.117775300152,520.0240995602212 L246.85590607531879,516.2716255349646 M246.85590607531879,516.2716255349646 L248.825963556536,512.6655610576007 M248.825963556536,512.6655610576007 L251.95129013832656,509.34410079370105 M251.95129013832656,509.34410079370105 L256.1111738520308,506.434308478842 M256.1111738520308,506.434308478842 L261.14548912155146,504.0473718773625 M261.14548912155146,504.0473718773625 L266.86106424697886,502.27432470918575 M266.86106424697886,502.27432470918575 L273.0388967621767,501.18274868675803 M273.0388967621767,501.18274868675803 L279.44257580558207,500.81420245883794 M279.44257580558207,500.81420245883794 L285.8271143784993,501.1827370458535 M285.8271143784993,501.1827370458535 L291.9482945196311,502.2743198579294 M291.9482945196311,502.2743198579294 L297.57186939512303,504.0473624955051 M297.57186939512303,504.0473624955051 L302.4823286314457,506.434308478842 M254.59859756424723,480.8318592274036 L250.58521700651877,477.9166066108477 M250.58521700651877,477.9166066108477 L247.63749468257402,474.5923264429499 M247.63749468257402,474.5923264429499 L245.86801462547044,470.987353107334 M245.86801462547044,470.987353107334 L245.34376852645622,467.24061317963503 M245.34376852645622,467.24061317963503 L246.08379240897665,463.4962007794587 M246.08379240897665,463.4962007794587 L248.05848852000008,459.8978883024872 M248.05848852000008,459.8978883024872 L251.1910167572437,456.5835724830549 M251.1910167572437,456.5835724830549 L255.36038567046137,453.68004247480167 M255.36038567046137,453.68004247480167 L260.4061041638282,451.2982452579058 M260.4061041638282,451.2982452579058 L266.1345635722763,449.5290170565612 M266.1345635722763,449.5290170565612 L272.32626924795915,448.43979275914444 M272.32626924795915,448.43979275914444 L278.7442816326119,448.0720406382274 M278.7442816326119,448.0720406382274 L285.1430679310322,448.43978114332174 M285.1430679310322,448.43978114332174 L291.27786772096334,449.52901221575553 M291.27786772096334,449.52901221575553 L296.9139150973156,451.29823589625306 M296.9139150973156,451.29823589625306 L301.83522310057356,453.68004247480167" stroke="black"  stroke-width="4"  fill="red"/></svg>