<svg viewBox="0 0 800 800" xmlns="http://www.w3.org/2000/svg"><path d="M494.6908514223194,448.96921633821603 L494.4824311388518,396.4043736805618 M659.8657060761146,352.9960398535408 L660.0103747474507,300.63275878565094 M494.6908514223194,448.96921633821603 L659.8657060761146,352.9960398535408 M494.4824311388518,396.4043736805618 L660.0103747474507,300.63275878565094 M625.423120549003,333.1106038278763 L625.4943828628377,280.7894816122442 M659.8657060761146,352.9960398535408 L625.423120549003,333.1106038278763 M660.0103747474507,300.63275878565094 L625.4943828628377,280.7894816122442 M617.6992803744885,331.2617770138828 L617.754125180603,278.9445813735238 M625.423120549003,333.1106038278763 L623.2928763932944,332.9892981671147 M623.2928763932944,332.9892981671147 L621.2439585031394,332.630056327988 M621.2439585031394,332.630056327988 L619.3552095053668,332.04672398243764 M619.3552095053668,332.04672398243764 L617.6992803744885,331.2617770138828 M625.4943828628377,280.7894816122442 L623.3596123529227,280.66843354687165 M623.3596123529227,280.66843354687165 L621.3063397665527,280.3099545957882 M621.3063397665527,280.3099545957882 L619.4135755195811,279.72786111261286 M619.4135755195811,279.72786111261286 L617.754125180603,278.9445813735238 M614.4938628144366,326.8005939327816 L614.5418813418142,274.4928778770719 M617.6992803744885,331.2617770138828 L616.339832932866,330.30545133239445 M616.339832932866,330.30545133239445 L615.329086873035,329.21456887788895 M615.329086873035,329.21456887788895 L614.7058143567975,328.0311102562397 M614.7058143567975,328.0311102562397 L614.4938628144366,326.8005939327816 M617.754125180603,278.9445813735238 L616.3917859959455,277.99028721636336 M616.3917859959455,277.99028721636336 L615.3788886860657,276.90172250895716 M615.3788886860657,276.90172250895716 L614.7542877886718,275.7207787889767 M614.7542877886718,275.7207787889767 L614.5418813418142,274.4928778770719 M625.3888415917443,320.49703246498194 L625.4599581745298,268.2027225255122 M614.4938628144366,326.8005939327816 L614.7648494693784,325.39736252222315 M614.7648494693784,325.39736252222315 L615.5692470832241,324.06479008308946 M615.5692470832241,324.06479008308946 L616.8665783683607,322.8696324143817 M616.8665783683607,322.8696324143817 L618.591707988076,321.87172268187857 M618.591707988076,321.87172268187857 L620.6581304917696,321.12099424756195 M620.6581304917696,321.12099424756195 L622.9623077538711,320.65499796552376 M622.9623077538711,320.65499796552376 L625.3888415917443,320.49703246498194 M614.5418813418142,274.4928778770719 L614.8134378729819,273.0926296116174 M614.8134378729819,273.0926296116174 L615.6195379116951,271.7628907290729 M615.6195379116951,271.7628907290729 L616.9196181977426,270.5702749396971 M616.9196181977426,270.5702749396971 L618.6484052046122,269.5744879525331 M618.6484052046122,269.5744879525331 L620.7192100838336,268.82535668701524 M620.7192100838336,268.82535668701524 L623.0282752995869,268.36035190576143 M623.0282752995869,268.36035190576143 L625.4599581745298,268.2027225255122 M749.177324807064,248.87612076768704 L749.5092171006264,196.7350893657141 M625.3888415917443,320.49703246498194 L749.177324807064,248.87612076768704 M625.4599581745298,268.2027225255122 L749.5092171006264,196.7350893657141 M703.9991566317854,223.11960101972846 L704.2352263622964,171.03412286258754 M749.177324807064,248.87612076768704 L703.9991566317854,223.11960101972846 M749.5092171006264,196.7350893657141 L704.2352263622964,171.03412286258754 M659.2931189464502,248.87612593620173 L659.4353584928162,196.73509452310384 M703.9991566317854,223.11960101972846 L659.2931189464502,248.87612593620173 M704.2352263622964,171.03412286258754 L659.4353584928162,196.73509452310384 M648.4786954941738,255.1066482890521 L648.5981777842655,202.95221273161758 M659.2931189464502,248.87612593620173 L659.0288480492162,250.2620001408203 M659.0288480492162,250.2620001408203 L658.2339326734929,251.57867119002094 M658.2339326734929,251.57867119002094 L656.9480876376792,252.76005027024144 M656.9480876376792,252.76005027024144 L655.2357165184117,253.7468038194018 M655.2357165184117,253.7468038194018 L653.1826796065797,254.4893503121279 M653.1826796065797,254.4893503121279 L650.8920037360134,254.95035845343176 M650.8920037360134,254.95035845343176 L648.4786954941738,255.1066482890521 M659.4353584928162,196.73509452310384 L659.1705460440177,198.11798604961712 M659.1705460440177,198.11798604961712 L658.3739683020968,199.43182397087912 M658.3739683020968,199.43182397087912 L657.085422834678,200.61066154256696 M657.085422834678,200.61066154256696 L655.3694483041265,201.59529264981836 M655.3694483041265,201.59529264981836 L653.3120856780141,202.33624219447722 M653.3120856780141,202.33624219447722 L651.0165790305938,202.7962589698455 M651.0165790305938,202.7962589698455 L648.5981777842655,202.95221273161758 M580.2088857511542,294.43898787292414 L580.1841684181776,242.20024178881874 M648.4786954941738,255.1066482890521 L580.2088857511542,294.43898787292414 M648.5981777842655,202.95221273161758 L580.1841684181776,242.20024178881874 M569.3138951511772,300.71592744042016 L569.2660796873153,248.46377564290088 M580.2088857511542,294.43898787292414 L579.9346573924662,295.83518453162316 M579.9346573924662,295.83518453162316 L579.1282602707555,297.1616633808254 M579.1282602707555,297.1616633808254 L577.8299837072544,298.35184341469864 M577.8299837072544,298.35184341469864 L576.1048523995407,299.34595002015357 M576.1048523995407,299.34595002015357 L574.0393717885851,300.09402912523973 M574.0393717885851,300.09402912523973 L571.7371906387907,300.558472813616 M571.7371906387907,300.558472813616 L569.3138951511772,300.71592744042016 M580.1841684181776,242.20024178881874 L579.9093564146835,243.5934554079725 M579.9093564146835,243.5934554079725 L579.1012483720516,244.91710079330096 M579.1012483720516,244.91710079330096 L577.8002187901222,246.10473902281944 M577.8002187901222,246.10473902281944 L576.0714300844797,247.09672294049074 M576.0714300844797,247.09672294049074 L574.001571093903,247.84320491722042 M574.001571093903,247.84320491722042 L571.6945104648328,248.30665712779364 M571.6945104648328,248.30665712779364 L569.2660796873153,248.46377564290088 M561.6187040352037,298.876790642484 L561.5545927606499,246.62856530330134 M569.3138951511772,300.71592744042016 L567.1897896702895,300.59525639002106 M567.1897896702895,300.59525639002106 L565.1478777442886,300.2378977464818 M565.1478777442886,300.2378977464818 L563.2667297832892,299.657623193756 M563.2667297832892,299.657623193756 L561.6187040352037,298.876790642484 M569.2660796873153,248.46377564290088 L567.1374739339163,248.34336218309983 M567.1374739339163,248.34336218309983 L565.0912370724345,247.98676640494506 M565.0912370724345,247.98676640494506 L563.2061061489304,247.40773067706056 M563.2061061489304,247.40773067706056 L561.5545927606499,246.62856530330134 M558.4419169042347,294.43898787292414 L558.3711009100076,242.20024178881874 M561.6187040352037,298.876790642484 L560.2671581494471,297.925477333273 M560.2671581494471,297.925477333273 L559.2640079695796,296.8403120286019 M559.2640079695796,296.8403120286019 L558.6477338515176,295.66305516512665 M558.6477338515176,295.66305516512665 L558.4419169042347,294.43898787292414 M561.5545927606499,246.62856530330134 L560.2001886881177,245.67928345287896 M560.2001886881177,245.67928345287896 L559.1949195120261,244.59643581753875 M559.1949195120261,244.59643581753875 L558.5773467253207,243.4216937677399 M558.5773467253207,243.4216937677399 L558.3711009100076,242.20024178881874 M524.3245795139621,274.7413339466169 L524.181738447332,222.54474418652092 M558.4419169042347,294.43898787292414 L524.3245795139621,274.7413339466169 M558.3711009100076,242.20024178881874 L524.181738447332,222.54474418652092 M359.15781997646513,369.4986977505487 L358.66194180006175,317.1005327560738 M524.3245795139621,274.7413339466169 L359.15781997646513,369.4986977505487 M524.181738447332,222.54474418652092 L358.66194180006175,317.1005327560738 M114.8953426519032,589.1316612720655 L113.86092526928405,536.2781364486204 M359.15781997646513,369.4986977505487 L342.6118031830796,366.45401378932485 M342.6118031830796,366.45401378932485 L325.70252901472094,364.16176079168247 M325.70252901472094,364.16176079168247 L308.52772086914854,362.63473946216953 M308.52772086914854,362.63473946216953 L291.18652331395486,361.88145904062935 M291.18652331395486,361.88145904062935 L273.7789029817281,361.9061326082104 M273.7789029817281,361.9061326082104 L256.40522661441673,362.7086167909018 M256.40522661441673,362.7086167909018 L239.16564723439865,364.2844430818354 M239.16564723439865,364.2844430818354 L222.15965363068148,366.62480916413716 M222.15965363068148,366.62480916413716 L205.48553281233853,369.7166409969226 M205.48553281233853,369.7166409969226 L189.2398085205329,373.5426576434976 M189.2398085205329,373.5426576434976 L173.5168096531644,378.08140244363653 M173.5168096531644,378.08140244363653 L158.40812537309114,383.3073994536136 M158.40812537309114,383.3073994536136 L144.00204224893517,389.19123573220793 M144.00204224893517,389.19123573220793 L130.38315784640872,395.69970757820005 M130.38315784640872,395.69970757820005 L117.63192761078534,402.79593148092215 M117.63192761078534,402.79593148092215 L105.82403463232657,410.43965934060645 M105.82403463232657,410.43965934060645 L95.03008424659606,418.5872749551837 M95.03008424659606,418.5872749551837 L85.31519808170805,427.19212975379946 M85.31519808170805,427.19212975379946 L76.73854159451565,436.20478523772965 M76.73854159451565,436.20478523772965 L69.35286517822118,445.57323182956327 M69.35286517822118,445.57323182956327 L63.2043310665141,455.2431597923435 M63.2043310665141,455.2431597923435 L58.33212814372973,465.1582034970178 M58.33212814372973,465.1582034970178 L54.768021248516675,475.2603794607454 M54.768021248516675,475.2603794607454 L52.53636094179626,485.4902432251906 M52.53636094179626,485.4902432251906 L51.65365121623233,495.78736492870826 M51.65365121623233,495.78736492870826 L52.1284980643527,506.09056199206077 M52.1284980643527,506.09056199206077 L53.96140789016772,516.3383612991532 M53.96140789016772,516.3383612991532 L57.14473935767501,526.4692990146083 M57.14473935767501,526.4692990146083 L61.66268649401951,536.4222915742571 M61.66268649401951,536.4222915742571 L67.49120644258522,546.1371135987488 M67.49120644258522,546.1371135987488 L74.59829719361994,555.5546032318255 M74.59829719361994,555.5546032318255 L82.94381631799058,564.6172602341599 M82.94381631799058,564.6172602341599 L92.47999006130556,573.2694163153212 M92.47999006130556,573.2694163153212 L103.15136530081679,581.4577801436441 M103.15136530081679,581.4577801436441 L114.8953426519032,589.1316612720655 M358.66194180006175,317.1005327560738 L342.0808001052028,314.0622777220743 M342.0808001052028,314.0622777220743 L325.1356102303466,311.7748669759024 M325.1356102303466,311.7748669759024 L307.92429690519236,310.25107239208864 M307.92429690519236,310.25107239208864 L290.54620878903387,309.4993840209271 M290.54620878903387,309.4993840209271 L273.10151828016035,309.52400543809046 M273.10151828016035,309.52400543809046 L255.69079886139346,310.32479359234674 M255.69079886139346,310.32479359234674 L238.41441016157216,311.89729006111753 M238.41441016157216,311.89729006111753 L221.3720466802044,314.2327123738225 M221.3720466802044,314.2327123738225 L204.66219928368253,317.3180159319026 M204.66219928368253,317.3180159319026 L188.38159269801835,321.13595864914294 M188.38159269801835,321.13595864914294 L172.62475317883093,325.66513199192804 M172.62475317883093,325.66513199192804 L157.48346259661173,330.88011700916263 M157.48346259661173,330.88011700916263 L143.04619449906932,336.75156635271384 M143.04619449906932,336.75156635271384 L129.39772697094156,343.2463501044258 M129.39772697094156,343.2463501044258 L116.61868861842777,350.3276663824895 M116.61868861842777,350.3276663824895 L104.78492701219784,357.95535578308625 M104.78492701219784,357.95535578308625 L93.96720265368356,366.0858977552845 M93.96720265368356,366.0858977552845 L84.23078211518396,374.67274550974184 M84.23078211518396,374.67274550974184 L75.63496450190496,383.6665678341756 M75.63496450190496,383.6665678341756 L68.23262148492984,393.0154673718153 M68.23262148492984,393.0154673718153 L62.07002370886886,402.6652508688196 M62.07002370886886,402.6652508688196 L57.186454626518184,412.55967283598454 M57.186454626518184,412.55967283598454 L53.61375864270536,422.6408725913889 M53.61375864270536,422.6408725913889 L51.376350714910814,432.8495307433154 M51.376350714910814,432.8495307433154 L50.490782899373585,443.12534372177663 M50.490782899373585,443.12534372177663 L50.965692582833526,453.4072559464902 M50.965692582833526,453.4072559464902 L52.80160020518656,463.6339210343117 M52.80160020518656,463.6339210343117 L55.99086076075599,473.74400100014657 M55.99086076075599,473.74400100014657 L60.51764661700781,483.67653650389184 M60.51764661700781,483.67653650389184 L66.3578748609425,493.3714238216702 M66.3578748609425,493.3714238216702 L73.47948541634571,502.7696198213822 M73.47948541634571,502.7696198213822 L81.84225915437474,511.8137389061113 M81.84225915437474,511.8137389061113 L91.39832791780464,520.4482230895675 M91.39832791780464,520.4482230895675 L102.09212619656336,528.6198859966511 M102.09212619656336,528.6198859966511 L113.86092526928405,536.2781364486204 M114.8953426519032,589.1316612720655 L127.64238686392542,596.243394909343 M127.64238686392542,596.243394909343 L141.31644914772625,602.7486642299907 M141.31644914772625,602.7486642299907 L155.83540607802001,608.6068233995992 M155.83540607802001,608.6068233995992 L171.1116973050629,613.7811061708965 M171.1116973050629,613.7811061708965 L187.05263679142067,618.2390279164622 M187.05263679142067,618.2390279164622 L203.56130645188227,621.9524552523502 M203.56130645188227,621.9524552523502 L220.53682390162504,624.8980000705978 M220.53682390162504,624.8980000705978 L237.8753792849341,627.0570137049469 M237.8753792849341,627.0570137049469 L255.47061582116416,628.4158424394839 M255.47061582116416,628.4158424394839 L273.21450701270965,628.9658771374125 M273.21450701270965,628.9658771374125 L290.9980717904842,628.7036267959988 M290.9980717904842,628.7036267959988 L308.71198693587337,627.6307634861095 M308.71198693587337,627.6307634861095 L326.2474992543473,625.7540698171667 M326.2474992543473,625.7540698171667 L343.4969535606036,623.0854592904564 M343.4969535606036,623.0854592904564 L360.3547568954125,619.6417623497059 M360.3547568954125,619.6417623497059 L376.7177924779386,615.4447564014738 M376.7177924779386,615.4447564014738 L392.4863307331211,610.5209135128837 M392.4863307331211,610.5209135128837 L407.5646031763604,604.901168992958 M407.5646031763604,604.901168992958 L421.86141693612774,598.6208048453547 M421.86141693612774,598.6208048453547 L435.29067437195806,591.7191480032217 M435.29067437195806,591.7191480032217 L447.7719232830416,584.2392495306218 M447.7719232830416,584.2392495306218 L459.2310564849722,576.2275953869304 M459.2310564849722,576.2275953869304 L469.6004026958236,567.733860745179 M469.6004026958236,567.733860745179 L478.81935813819587,558.8104696899297 M478.81935813819587,558.8104696899297 L486.8346404837606,549.5122510566557 M486.8346404837606,549.5122510566557 L493.60058336804286,539.8961311936388 M493.60058336804286,539.8961311936388 L499.0792986398727,530.0207183710514 M499.0792986398727,530.0207183710514 L503.2409464010457,519.9458998553087 M503.2409464010457,519.9458998553087 L506.06376435635275,509.73250636479406 M506.06376435635275,509.73250636479406 L507.5341362464105,499.4419039624662 M507.5341362464105,499.4419039624662 L507.6466362245544,489.1356061240132 M507.6466362245544,489.1356061240132 L506.40393206197837,478.87494368716955 M506.40393206197837,478.87494368716955 L503.816743542534,468.72064760126545 M503.816743542534,468.72064760126545 L499.903627677853,458.73255398167885 M499.903627677853,458.73255398167885 L494.6908514223194,448.96921633821603 M113.86092526928405,536.2781364486204 L126.63504395158549,543.3754024922486 M126.63504395158549,543.3754024922486 L140.3382717794555,549.867453182978 M140.3382717794555,549.867453182978 L154.88830884038958,555.7137210844832 M154.88830884038958,555.7137210844832 L170.1974048914323,560.8775105701878 M170.1974048914323,560.8775105701878 L186.172671315087,565.3263991645057 M186.172671315087,565.3263991645057 L202.71697680305505,569.0323071414869 M202.71697680305505,569.0323071414869 L219.72921579696828,571.9718908638147 M219.72921579696828,571.9718908638147 L237.1053477380419,574.1265370511746 M237.1053477380419,574.1265370511746 L254.73877861347455,575.4826178458724 M254.73877861347455,575.4826178458724 L272.521240277879,576.0315403968931 M272.521240277879,576.0315403968931 L290.34350737179415,575.769820301619 M290.34350737179415,575.769820301619 L308.0960113028695,574.6991264690143 M308.0960113028695,574.6991264690143 L325.66975463762736,572.8262286838839 M325.66975463762736,572.8262286838839 L342.9568404609265,570.1630178908155 M342.9568404609265,570.1630178908155 L359.8514389162624,566.7262926289236 M359.8514389162624,566.7262926289236 L376.2502022574557,562.5377889236947 M376.2502022574557,562.5377889236947 L392.0531780472604,557.6239284101771 M392.0531780472604,557.6239284101771 L407.16438445165636,552.015587283178 M407.16438445165636,552.015587283178 L421.492426226438,545.7479798737309 M421.492426226438,545.7479798737309 L434.95101556652594,538.8603573740188 M434.95101556652594,538.8603573740188 L447.4595235766947,531.3956875623694 M447.4595235766947,531.3956875623694 L458.9436813958232,523.4003660250964 M458.9436813958232,523.4003660250964 L469.33567127294623,514.9239708442469 M469.33567127294623,514.9239708442469 L478.57475950013156,506.01882306618666 M478.57475950013156,506.01882306618666 L486.60755083158256,496.739643124257 M486.60755083158256,496.739643124257 L493.38828352847304,487.14324411886616 M493.38828352847304,487.14324411886616 L498.87899182580406,477.28811697993694 M498.87899182580406,477.28811697993694 L503.0497763968947,467.23402828529436 M503.0497763968947,467.23402828529436 L505.878833586778,457.04168533981783 M505.878833586778,457.04168533981783 L507.3525237989094,446.7723288598112 M507.3525237989094,446.7723288598112 L507.4654157632225,436.4873458120669 M507.4654157632225,436.4873458120669 L506.2201893226221,426.2479400351241 M506.2201893226221,426.2479400351241 L503.6275935297774,416.1147158617916 M503.6275935297774,416.1147158617916 L499.70623119575873,406.1473838135676 M499.70623119575873,406.1473838135676 L494.4824311388518,396.4043736805618 M304.12486197059803,479.87994735479344 L303.50624210266534,427.25086007355196 M255.29436893741794,508.0722456521621 L254.5691357404726,455.3848499312322 M304.12486197059803,479.87994735479344 L308.2838094902808,482.89474585965047 M308.2838094902808,482.89474585965047 L311.3485324056727,486.33608972480215 M311.3485324056727,486.33608972480215 L313.20060372561056,490.07229872010817 M313.20060372561056,490.07229872010817 L313.7678111833029,493.960205071827 M313.7678111833029,493.960205071827 L313.0271877717101,497.8505294041847 M313.0271877717101,497.8505294041847 L311.0060161122417,501.5936317406432 M311.0060161122417,501.5936317406432 L307.7809690571454,505.04528066381124 M307.7809690571454,505.04528066381124 L303.47532263073435,508.0722456521621 M303.47532263073435,508.0722456521621 L298.25434215601297,510.55749526723343 M298.25434215601297,510.55749526723343 L292.3188487677096,512.4048690169391 M292.3188487677096,512.4048690169391 L285.89771460556426,513.542732685131 M285.89771460556426,513.542732685131 L279.23866896899233,513.926989398796 M279.23866896899233,513.926989398796 L272.5988249118563,513.5427232454497 M272.5988249118563,513.5427232454497 L266.2344900861788,512.4048632867455 M266.2344900861788,512.4048632867455 L260.3912584931055,510.5575158224502 M260.3912584931055,510.5575158224502 L255.29436893741794,508.0722456521621 M303.50624210266534,427.25086007355196 L307.673983100801,430.2594102130664 M307.673983100801,430.2594102130664 L310.7451296619777,433.69362548636 M310.7451296619777,433.69362548636 L312.6010050460289,437.42209969609917 M312.6010050460289,437.42209969609917 L313.16924637235144,441.30196230656 M313.16924637235144,441.30196230656 L312.42684182734456,445.18424309288787 M312.42684182734456,445.18424309288787 L310.40113740412437,448.91961118418874 M310.40113740412437,448.91961118418874 L307.16897586391224,452.36413234826534 M307.16897586391224,452.36413234826534 L302.8539038181201,455.3848499312322 M302.8539038181201,455.3848499312322 L297.6215479386219,457.8649725498194 M297.6215479386219,457.8649725498194 L291.67316747372655,459.70853659697127 M291.67316747372655,459.70853659697127 L285.23813298476665,460.8440543163732 M285.23813298476665,460.8440543163732 L278.564712249733,461.22751890328504 M278.564712249733,461.22751890328504 L271.9105759325128,460.844044896152 M271.9105759325128,460.844044896152 L265.53258593446924,459.7085308785927 M265.53258593446924,459.7085308785927 L259.6768653335055,457.8649930626401 M259.6768653335055,457.8649930626401 L254.5691357404726,455.3848499312322 M255.29436893741794,508.0722456521621 L251.13983639688774,505.0452951407983 M251.13983639688774,505.0452951407983 L248.0871321859314,501.59364015285416 M248.0871321859314,501.59364015285416 L246.25285342163386,497.8505307493332 M246.25285342163386,497.8505307493332 L245.70645060216043,493.9602158263216 M245.70645060216043,493.9602158263216 L246.46777651386924,490.07231081139173 M246.46777651386924,490.07231081139173 L248.5063781151178,486.3360981165081 M248.5063781151178,486.3360981165081 L251.74296629733536,482.8947388144994 M251.74296629733536,482.8947388144994 L256.05242048402204,479.87994735479344 M256.05242048402204,479.87994735479344 L261.26898598160824,477.4068497649631 M261.26898598160824,477.4068497649631 L267.19242344522263,475.5698087136876 M267.19242344522263,475.5698087136876 L273.59578365712974,474.4388347193202 M273.59578365712974,474.4388347193202 L280.23400595219334,474.05699734108646 M280.23400595219334,474.05699734108646 L286.8531661158672,474.4388333792027 M286.8531661158672,474.4388333792027 L293.2000523544375,475.5698144102189 M293.2000523544375,475.5698144102189 L299.03178007868405,477.4068507705292 M299.03178007868405,477.4068507705292 L304.12486197059803,479.87994735479344 M254.5691357404726,455.3848499312322 L250.405829442187,452.3641467953656 M250.405829442187,452.3641467953656 L247.34675393195255,448.9196195790231 M247.34675393195255,448.9196195790231 L245.50874810597213,445.184244435256 M245.50874810597213,445.184244435256 L244.96140123764593,441.30197303881164 M244.96140123764593,441.30197303881164 L245.72459736172863,437.4221117623589 M245.72459736172863,437.4221117623589 L247.76780646267537,433.6936338606879 M247.76780646267537,433.6936338606879 L251.01155822659717,430.2594031825133 M251.01155822659717,430.2594031825133 L255.33045382416617,427.25086007355196 M255.33045382416617,427.25086007355196 L260.5583750060489,424.78289047010344 M260.5583750060489,424.78289047010344 L266.49464711863845,422.9496598972809 M266.49464711863845,422.9496598972809 L272.91183069541336,421.82103239988396 M272.91183069541336,421.82103239988396 L279.56433822795145,421.4399873409031 M279.56433822795145,421.4399873409031 L286.19770161312283,421.82103106254715 M286.19770161312283,421.82103106254715 L292.55816824728333,422.94966558199445 M292.55816824728333,422.94966558199445 L298.4023359642758,424.782891473584 M298.4023359642758,424.782891473584 L303.50624210266534,427.25086007355196" stroke="black"  stroke-width="4"  fill="red"/></svg>