<svg viewBox="0 0 800 800" xmlns="http://www.w3.org/2000/svg"><path d="M493.58381069149345,449.84168306099014 L493.3645619765262,397.1543785997612 M660.0255313811601,353.1080689468731 L660.1762483829802,300.6318461261113 M493.58381069149345,449.84168306099014 L660.0255313811601,353.1080689468731 M493.3645619765262,397.1543785997612 L660.1762483829802,300.6318461261113 M625.0921737093386,332.93928549134944 L625.165487760717,280.5075094278038 M660.0255313811601,353.1080689468731 L625.0921737093386,332.93928549134944 M660.1762483829802,300.6318461261113 L625.165487760717,280.5075094278038 M617.6455258827384,331.1567656284345 L617.7023861041295,278.7289250211627 M625.0921737093386,332.93928549134944 L623.0384065971338,332.82233037721005 M623.0384065971338,332.82233037721005 L621.0630291891671,332.4759725076212 M621.0630291891671,332.4759725076212 L619.2420542706336,331.91356099031503 M619.2420542706336,331.91356099031503 L617.6455258827384,331.1567656284345 M625.165487760717,280.5075094278038 L623.107184399914,280.39081249167896 M623.107184399914,280.39081249167896 L621.1274427017673,280.0452192356186 M621.1274427017673,280.0452192356186 L619.3024436102024,279.4840493827101 M619.3024436102024,279.4840493827101 L617.7023861041295,278.7289250211627 M614.5548867349926,326.8555800201824 L614.6049044373472,274.43724043756424 M617.6455258827384,331.1567656284345 L616.3348222047343,330.23473794385217 M616.3348222047343,330.23473794385217 L615.3602905673888,329.1829792844472 M615.3602905673888,329.1829792844472 L614.7593139558958,328.04196465115245 M614.7593139558958,328.04196465115245 L614.5548867349926,326.8555800201824 M617.7023861041295,278.7289250211627 L616.3887840910186,277.80893345568575 M616.3887840910186,277.80893345568575 L615.4120961826941,276.75949778547005 M615.4120961826941,276.75949778547005 L614.8097879325678,275.62100374178357 M614.8097879325678,275.62100374178357 L614.6049044373472,274.43724043756424 M625.0582464868723,320.77809196683705 L625.1314105988871,268.3731888196321 M614.5548867349926,326.8555800201824 L614.8160459833257,325.5026746319165 M614.8160459833257,325.5026746319165 L615.5914692040569,324.21789408687147 M615.5914692040569,324.21789408687147 L616.8421370744078,323.06560002555074 M616.8421370744078,323.06560002555074 L618.5052570806129,322.1034797295617 M618.5052570806129,322.1034797295617 L620.497433194537,321.37967572641827 M620.497433194537,321.37967572641827 L622.7188474056114,320.9303921272048 M622.7188474056114,320.9303921272048 L625.0582464868723,320.77809196683705 M614.6049044373472,274.43724043756424 L614.8666343704609,273.08732494121097 M614.8666343704609,273.08732494121097 L615.6437633126038,271.80538436116865 M615.6437633126038,271.80538436116865 L616.8971858016957,270.65563792786594 M616.8971858016957,270.65563792786594 L618.5639708516496,269.6956451779456 M618.5639708516496,269.6956451779456 L620.5605386524742,268.97344195567564 M620.5605386524742,268.97344195567564 L622.7868513171666,268.5251520995614 M622.7868513171666,268.5251520995614 L625.1314105988871,268.3731888196321 M749.4754777521125,248.7873904668254 L749.8210154104809,196.54268891837586 M625.0582464868723,320.77809196683705 L749.4754777521125,248.7873904668254 M625.1314105988871,268.3731888196321 L749.8210154104809,196.54268891837586 M704.2066354059193,222.99191247064442 L704.45237034711,170.8050809267305 M749.4754777521125,248.7873904668254 L704.2066354059193,222.99191247064442 M749.8210154104809,196.54268891837586 L704.45237034711,170.8050809267305 M659.4292542963572,248.78739544749425 L659.5773418562026,196.5426938878948 M704.2066354059193,222.99191247064442 L659.4292542963572,248.78739544749425 M704.45237034711,170.8050809267305 L659.5773418562026,196.5426938878948 M649.007007469271,254.7914734874941 L649.1323052812262,202.53333763281 M659.4292542963572,248.78739544749425 L659.1748229806944,250.12290105814236 M659.1748229806944,250.12290105814236 L658.4089127637471,251.39171859396464 M658.4089127637471,251.39171859396464 L657.1697893001,252.53016120729524 M657.1697893001,252.53016120729524 L655.5195160249184,253.4810517951356 M655.5195160249184,253.4810517951356 L653.5408395489876,254.19661086348668 M653.5408395489876,254.19661086348668 L651.3330550725683,254.6408639205203 M651.3330550725683,254.6408639205203 L649.007007469271,254.7914734874941 M659.5773418562026,196.5426938878948 L659.3223693446012,197.8752101123133 M659.3223693446012,197.8752101123133 L658.554795173814,199.14118814788912 M658.554795173814,199.14118814788912 L657.3129678262519,200.2770835358569 M657.3129678262519,200.2770835358569 L655.6590859953037,201.2258469072836 M655.6590859953037,201.2258469072836 L653.6760772262407,201.939805434989 M653.6760772262407,201.939805434989 L651.4634542900069,202.383064895776 M651.4634542900069,202.383064895776 L649.1323052812262,202.53333763281 M579.7874690545405,294.66766500645906 L579.7608176765648,242.32064381515033 M649.007007469271,254.7914734874941 L579.7874690545405,294.66766500645906 M649.1323052812262,202.53333763281 L579.7608176765648,242.32064381515033 M569.2840974520702,300.71847764126034 L569.2342995857778,248.35802044888925 M579.7874690545405,294.66766500645906 L579.5230117001279,296.01356366163776 M579.5230117001279,296.01356366163776 L578.7455404803875,297.29225608057936 M578.7455404803875,297.29225608057936 L577.4938995438515,298.43955984230564 M577.4938995438515,298.43955984230564 L575.8307778387714,299.3978537197967 M575.8307778387714,299.3978537197967 L573.8395713875104,300.11898324265326 M573.8395713875104,300.11898324265326 L571.6202017727115,300.56669532516213 M571.6202017727115,300.56669532516213 L569.2840974520702,300.71847764126034 M579.7608176765648,242.32064381515033 L579.4957750759647,243.66355269161522 M579.4957750759647,243.66355269161522 L578.7165890891831,244.9394052451974 M578.7165890891831,244.9394052451974 L577.4621892350165,246.0841614598201 M577.4621892350165,246.0841614598201 L575.7954024749139,247.04032785355685 M575.7954024749139,247.04032785355685 L573.799808613055,247.75985663944368 M573.799808613055,247.75985663944368 L571.5755495676829,248.20657500393025 M571.5755495676829,248.20657500393025 L569.2342995857778,248.35802044888925 M561.8659449899502,298.9455958272092 L561.7998191189869,246.5890739647836 M569.2840974520702,300.71847764126034 L567.2364361365321,300.60215377142526 M567.2364361365321,300.60215377142526 L565.2680270906974,300.25766899015247 M565.2680270906974,300.25766899015247 L563.4546124132689,299.69829885423576 M563.4546124132689,299.69829885423576 L561.8659449899502,298.9455958272092 M569.2342995857778,248.35802044888925 L567.1821289882153,248.24195475167681 M567.1821289882153,248.24195475167681 L565.2093864224604,247.89823455946805 M565.2093864224604,247.89823455946805 L563.3919809539059,247.3401060474581 M563.3919809539059,247.3401060474581 L561.7998191189869,246.5890739647836 M558.8037825415147,294.66766500645906 L558.730939833898,242.32064381515033 M561.8659449899502,298.9455958272092 L560.5631004595732,298.0285536130741 M560.5631004595732,298.0285536130741 L559.596123934709,296.98248141907186 M559.596123934709,296.98248141907186 L559.0021081608043,295.8476352585849 M559.0021081608043,295.8476352585849 L558.8037825415147,294.66766500645906 M561.7998191189869,246.5890739647836 L560.494110948041,245.6740677992313 M560.494110948041,245.6740677992313 L559.525011500122,244.63031851086373 M559.525011500122,244.63031851086373 L558.9296948079918,243.49799284559293 M558.9296948079918,243.49799284559293 L558.730939833898,242.32064381515033 M524.2118401322447,274.69599774467497 L524.0631016936279,222.39342044332864 M558.8037825415147,294.66766500645906 L524.2118401322447,274.69599774467497 M558.730939833898,242.32064381515033 L524.0631016936279,222.39342044332864 M357.77898056523156,370.15601786868626 L357.2603354169981,317.64234328918633 M524.2118401322447,274.69599774467497 L357.77898056523156,370.15601786868626 M524.0631016936279,222.39342044332864 L357.2603354169981,317.64234328918633 M114.35384974843572,589.4809301828699 L113.27645403733572,536.4950326105909 M357.77898056523156,370.15601786868626 L341.745890069309,367.217385828869 M341.745890069309,367.217385828869 L325.37079942132704,364.98702908062495 M325.37079942132704,364.98702908062495 L308.74288418835033,363.4766761274027 M308.74288418835033,363.4766761274027 L291.95263277518706,362.69425420867924 M291.95263277518706,362.69425420867924 L275.09127923210093,362.64389403534983 M275.09127923210093,362.64389403534983 L258.25044281532644,363.3258411050492 M258.25044281532644,363.3258411050492 L241.5216245938132,364.73652220948475 M241.5216245938132,364.73652220948475 L224.99581916894374,366.86852849443085 M224.99581916894374,366.86852849443085 L208.76300002524806,369.7106421388945 M208.76300002524806,369.7106421388945 L192.91175670163503,373.24790699372113 M192.91175670163503,373.24790699372113 L177.5287513138914,377.46167250832093 M177.5287513138914,377.46167250832093 L162.698394446318,382.3296622949106 M162.698394446318,382.3296622949106 L148.50232522526153,387.8261139589128 M148.50232522526153,387.8261139589128 L135.0190686465413,393.9218178871121 M135.0190686465413,393.9218178871121 L122.32355324864591,400.58430548200533 M122.32355324864591,400.58430548200533 L110.48670591283332,407.7779842319477 M110.48670591283332,407.7779842319477 L99.57515662826006,415.46428166546923 M99.57515662826006,415.46428166546923 L89.65071846812356,423.6018094957943 M89.65071846812356,423.6018094957943 L80.77025686785186,432.14657994358845 M80.77025686785186,432.14657994358845 L72.98507212079227,441.0521934441415 M72.98507212079227,441.0521934441415 L66.34072254200476,450.27013236226355 M66.34072254200476,450.27013236226355 L60.87671962399088,459.74990475690834 M60.87671962399088,459.74990475690834 L56.62637636045599,469.43929062723953 M56.62637636045599,469.43929062723953 L53.616249353711964,479.28478048529973 M53.616249353711964,479.28478048529973 L51.86628936752004,489.2316024061763 M51.86628936752004,489.2316024061763 L51.38936219982895,499.22427341215086 M51.38936219982895,499.22427341215086 L52.19140707910361,509.2066514757348 M52.19140707910361,509.2066514757348 L54.27101461025023,519.1224570395176 M54.27101461025023,519.1224570395176 L57.619530565756236,528.9155230880918 M57.619530565756236,528.9155230880918 L62.22117715138228,538.5300188333111 M62.22117715138228,538.5300188333111 L68.0527259981103,547.9109658591785 M68.0527259981103,547.9109658591785 L75.08387193689055,557.0044096863685 M75.08387193689055,557.0044096863685 L83.27722038997473,565.757831926824 M83.27722038997473,565.757831926824 L92.58841267467483,574.1204748032536 M92.58841267467483,574.1204748032536 L102.96645402890698,582.0436144062336 M102.96645402890698,582.0436144062336 L114.35384974843572,589.4809301828699 M357.2603354169981,317.64234328918633 L341.19186293770224,314.71015930041494 M341.19186293770224,314.71015930041494 L324.7806154496526,312.48469861524245 M324.7806154496526,312.48469861524245 L308.1159592992568,310.9776622241757 M308.1159592992568,310.9776622241757 L291.2885763184411,310.1969587465991 M291.2885763184411,310.1969587465991 L274.3898955517587,310.14670918759225 M274.3898955517587,310.14670918759225 L257.5117322057613,310.82715846466095 M257.5117322057613,310.82715846466095 L240.74578332205633,312.2347417700663 M240.74578332205633,312.2347417700663 L224.18323882153382,314.3620676535373 M224.18323882153382,314.3620676535373 L207.9142658923221,317.19794461304656 M207.9142658923221,317.19794461304656 L192.0276455225825,320.72745153384705 M192.0276455225825,320.72745153384705 L176.61022797377993,324.9319814604684 M176.61022797377993,324.9319814604684 L161.74660809176862,329.78930993941776 M161.74660809176862,329.78930993941776 L147.5186043414012,335.2737344607179 M147.5186043414012,335.2737344607179 L134.00491547430084,341.3561130688666 M134.00491547430084,341.3561130688666 L121.28063719687259,348.0040520850765 M121.28063719687259,348.0040520850765 L109.41685611413669,355.1820407763038 M109.41685611413669,355.1820407763038 L98.4803538551028,362.85159488548464 M98.4803538551028,362.85159488548464 L88.53308587987283,370.97142030660945 M88.53308587987283,370.97142030660945 L79.63205042100003,379.49762882568416 M79.63205042100003,379.49762882568416 L71.82866953388401,388.3839253121786 M71.82866953388401,388.3839253121786 L65.16861175763859,397.5819006943587 M65.16861175763859,397.5819006943587 L59.69148647180208,407.0411753180767 M59.69148647180208,407.0411753180767 L55.43069172945866,416.70964457449327 M55.43069172945866,416.70964457449327 L52.41285492622478,426.53391645260956 M52.41285492622478,426.53391645260956 L50.65798351867983,436.4593384720266 M50.65798351867983,436.4593384720266 L50.17898458951919,446.43054783487287 M50.17898458951919,446.43054783487287 L50.98182340068445,456.3915232892805 M50.98182340068445,456.3915232892805 L53.06510014367467,466.2861055181178 M53.06510014367467,466.2861055181178 L56.42015373717203,476.0582466825107 M56.42015373717203,476.0582466825107 L61.03118314541507,485.6522336520891 M61.03118314541507,485.6522336520891 L66.87491939459164,495.01320308880145 M66.87491939459164,495.01320308880145 L73.92099999143164,504.0873127039931 M73.92099999143164,504.0873127039931 L82.13195608404578,512.8221526084664 M82.13195608404578,512.8221526084664 L91.46333787405769,521.1670692296735 M91.46333787405769,521.1670692296735 L101.8640432363797,529.0734380878912 M101.8640432363797,529.0734380878912 L113.27645403733572,536.4950326105909 M114.35384974843572,589.4809301828699 L126.68699328174222,596.3887632547709 M126.68699328174222,596.3887632547709 L139.89645444558846,602.7264371664654 M139.89645444558846,602.7264371664654 L153.90742808348693,608.4564949284071 M153.90742808348693,608.4564949284071 L168.64009191522086,613.5450014272577 M168.64009191522086,613.5450014272577 L184.0101778507596,617.961705159396 M184.0101778507596,617.961705159396 L199.92939599499013,621.68031577905 M199.92939599499013,621.68031577905 L216.30597114104023,624.6786649409814 M216.30597114104023,624.6786649409814 L233.04535358936147,626.9387874108191 M233.04535358936147,626.9387874108191 L250.0505319913168,628.4472252259022 M250.0505319913168,628.4472252259022 L267.2229704239104,629.1949190732695 M267.2229704239104,629.1949190732695 L284.4630550987121,629.1773544407333 M284.4630550987121,629.1773544407333 L301.67060370001644,628.394691810401 M301.67060370001644,628.394691810401 L318.7458673575044,626.8515807391499 M318.7458673575044,626.8515807391499 L335.589726338221,624.5572999254626 M335.589726338221,624.5572999254626 L352.1047687021969,621.5255178247413 M352.1047687021969,621.5255178247413 L368.1954605036317,617.7744062240968 M368.1954605036317,617.7744062240968 L383.76904254283284,613.3263278235261 M383.76904254283284,613.3263278235261 L398.7360904704582,608.2077509024292 M398.7360904704582,608.2077509024292 L413.0108963463688,602.4490579105554 M413.0108963463688,602.4490579105554 L426.5121053350458,596.0844236486339 M426.5121053350458,596.0844236486339 L439.16316436979145,589.1514155496769 M439.16316436979145,589.1514155496769 L450.89280613714897,581.6908774677402 M450.89280613714897,581.6908774677402 L461.6354328616667,573.7465699610187 M461.6354328616667,573.7465699610187 L471.3314484000707,565.3649379050959 M471.3314484000707,565.3649379050959 L479.9275595062808,556.5948061648659 M479.9275595062808,556.5948061648659 L487.3771530274837,547.4870260501352 M487.3771530274837,547.4870260501352 L493.6403926967472,538.0941996069324 M493.6403926967472,538.0941996069324 L498.68447483969425,528.4702992133164 M498.68447483969425,528.4702992133164 L502.4837397719273,518.6704033468442 M502.4837397719273,518.6704033468442 L505.01972295238244,508.7503034604309 M505.01972295238244,508.7503034604309 L506.28123449556693,498.7662229407965 M506.28123449556693,498.7662229407965 L506.2643462444477,488.7744502916653 M506.2643462444477,488.7744502916653 L504.9722875220575,478.83105347056244 M504.9722875220575,478.83105347056244 L502.4154738619847,468.9915350412314 M502.4154738619847,468.9915350412314 L498.6112537746448,459.31057841632935 M498.6112537746448,459.31057841632935 L493.58381069149345,449.84168306099014 M113.27645403733572,536.4950326105909 L125.63682501873063,543.3882820198261 M125.63682501873063,543.3882820198261 L138.87557260406618,549.7125915232006 M138.87557260406618,549.7125915232006 L152.9177245503946,555.4305789785699 M152.9177245503946,555.4305789785699 L167.6832786142934,560.5083767874651 M167.6832786142934,560.5083767874651 L183.08777520919978,564.915793404321 M183.08777520919978,564.915793404321 L199.04272244300907,568.6265904097081 M199.04272244300907,568.6265904097081 L215.4561339374229,571.618643114257 M215.4561339374229,571.618643114257 L232.233241399282,573.8740215852338 M232.233241399282,573.8740215852338 L249.27680832341116,575.3792942409797 M249.27680832341116,575.3792942409797 L266.4880693861883,576.1254195126562 M266.4880693861883,576.1254195126562 L283.76717835925217,576.1078917263235 M283.76717835925217,576.1078917263235 L301.0137188052822,575.3268710423278 M301.0137188052822,575.3268710423278 L318.12770854480374,573.7869979253425 M318.12770854480374,573.7869979253425 L335.009795996217,571.4975328975326 M335.009795996217,571.4975328975326 L351.56234149053864,568.4721176175866 M351.56234149053864,568.4721176175866 L367.6895880452657,564.7288881605438 M367.6895880452657,564.7288881605438 L383.2985603358127,560.2901631820134 M383.2985603358127,560.2901631820134 L398.29962622379196,555.1823586767568 M398.29962622379196,555.1823586767568 L412.60687931549205,549.4357968723975 M412.60687931549205,549.4357968723975 L426.1387772026593,543.0845845564533 M426.1387772026593,543.0845845564533 L438.81859122484957,536.1662140829966 M438.81859122484957,536.1662140829966 L450.5748915891057,528.7214472857803 M450.5748915891057,528.7214472857803 L461.341932037971,520.7939563985924 M461.341932037971,520.7939563985924 L471.0599826731831,512.4300920394609 M471.0599826731831,512.4300920394609 L479.67563185066257,503.6785794106718 M479.67563185066257,503.6785794106718 L487.142164147464,494.59016539531524 M487.142164147464,494.59016539531524 L493.4196572640455,485.2173433351618 M493.4196572640455,485.2173433351618 L498.47523817546664,475.61397334863796 M498.47523817546664,475.61397334863796 L502.2831946249099,465.8350185881219 M502.2831946249099,465.8350185881219 L504.82502622310056,455.93615289690274 M504.82502622310056,455.93615289690274 L506.0895239553064,445.9734803272969 M506.0895239553064,445.9734803272969 L506.072757034636,436.00316908535956 M506.072757034636,436.00316908535956 L504.77796822485374,426.08116647418103 M504.77796822485374,426.08116647418103 L502.2156024416133,416.26285479846564 M502.2156024416133,416.26285479846564 L498.40305276289433,406.60279818152577 M498.40305276289433,406.60279818152577 L493.3645619765262,397.1543785997612 M302.4823286314457,480.86490225752925 L301.83522310057356,428.1106362534889 M255.35278479383692,508.07515707895686 L254.59859756424723,455.2624530060908 M302.4823286314457,480.86490225752925 L306.4911928989602,483.7746806491215 M306.4911928989602,483.7746806491215 L309.444148120067,487.09614673690226 M309.444148120067,487.09614673690226 L311.22708460276607,490.70220764355724 M311.22708460276607,490.70220764355724 L311.7704826785701,494.4546829590331 M311.7704826785701,494.4546829590331 L311.0523129714741,498.20950375930795 M311.0523129714741,498.20950375930795 L309.0990716398024,501.82222172308514 M309.0990716398024,501.82222172308514 L305.9848382553213,505.1536396438323 M305.9848382553213,505.1536396438323 L301.82867189289095,508.07515707895686 M301.82867189289095,508.07515707895686 L296.7900297794632,510.47386033498503 M296.7900297794632,510.47386033498503 L291.0628447339471,512.2568651900827 M291.0628447339471,512.2568651900827 L284.86785077381995,513.3550947220024 M284.86785077381995,513.3550947220024 L278.4440893695245,513.7259670085302 M278.4440893695245,513.7259670085302 L272.0395897306111,513.3550856111241 M272.0395897306111,513.3550856111241 L265.9015754370519,512.2568596594838 M265.9015754370519,512.2568596594838 L260.26690734553335,510.47385935928514 M260.26690734553335,510.47385935928514 L255.35278479383692,508.07515707895686 M301.83522310057356,428.1106362534889 L305.85289643625873,431.01415236843275 M305.85289643625873,431.01415236843275 L308.8122813541338,434.3284739992056 M308.8122813541338,434.3284739992056 L310.5990181657062,437.92678291313086 M310.5990181657062,437.92678291313086 L311.1434367124954,441.67119660073934 M311.1434367124954,441.67119660073934 L310.4234632655069,445.41795595456244 M310.4234632655069,445.41795595456244 L308.4656582846466,449.0229224901335 M308.4656582846466,449.0229224901335 L305.34427238276595,452.3471968227823 M305.34427238276595,452.3471968227823 L301.1786367171102,455.2624530060908 M301.1786367171102,455.2624530060908 L296.1285713815082,457.65601784320836 M296.1285713815082,457.65601784320836 L290.3884494371966,459.4352045879692 M290.3884494371966,459.4352045879692 L284.17950501193707,460.5310829671897 M284.17950501193707,460.5310829671897 L277.74132008247443,460.90116136998313 M277.74132008247443,460.90116136998313 L271.32248335039776,460.53107387581485 M271.32248335039776,460.53107387581485 L265.1707743863809,459.43519906921165 M265.1707743863809,459.43519906921165 L259.5235846559562,457.65601686959815 M259.5235846559562,457.65601686959815 L254.59859756424723,455.2624530060908 M255.35278479383692,508.07515707895686 L251.34819342831696,505.15364321824757 M251.34819342831696,505.15364321824757 L248.40684818502257,501.82221944971263 M248.40684818502257,501.82221944971263 L246.6410911114529,498.20949467126115 M246.6410911114529,498.20949467126115 L246.117775300152,494.45469333890844 M246.117775300152,494.45469333890844 L246.85590607531879,490.7022193136519 M246.85590607531879,490.7022193136519 L248.825963556536,487.09615483628795 M248.825963556536,487.09615483628795 L251.95129013832656,483.7746945723883 M251.95129013832656,483.7746945723883 L256.1111738520308,480.86490225752925 M256.1111738520308,480.86490225752925 L261.14548912155146,478.4779656560497 M261.14548912155146,478.4779656560497 L266.86106424697886,476.704918487873 M266.86106424697886,476.704918487873 L273.0388967621767,475.61334246544527 M273.0388967621767,475.61334246544527 L279.44257580558207,475.2447962375252 M279.44257580558207,475.2447962375252 L285.8271143784993,475.61333082454075 M285.8271143784993,475.61333082454075 L291.9482945196311,476.70491363661665 M291.9482945196311,476.70491363661665 L297.57186939512303,478.47795627419237 M297.57186939512303,478.47795627419237 L302.4823286314457,480.86490225752925 M254.59859756424723,455.2624530060908 L250.58521700651877,452.3472003895349 M250.58521700651877,452.3472003895349 L247.63749468257402,449.02292022163715 M247.63749468257402,449.02292022163715 L245.86801462547044,445.41794688602124 M245.86801462547044,445.41794688602124 L245.34376852645622,441.6712069583223 M245.34376852645622,441.6712069583223 L246.08379240897665,437.92679455814596 M246.08379240897665,437.92679455814596 L248.05848852000008,434.32848208117446 M248.05848852000008,434.32848208117446 L251.1910167572437,431.01416626174216 M251.1910167572437,431.01416626174216 L255.36038567046137,428.1106362534889 M255.36038567046137,428.1106362534889 L260.4061041638282,425.72883903659306 M260.4061041638282,425.72883903659306 L266.1345635722763,423.95961083524844 M266.1345635722763,423.95961083524844 L272.32626924795915,422.8703865378317 M272.32626924795915,422.8703865378317 L278.7442816326119,422.50263441691465 M278.7442816326119,422.50263441691465 L285.1430679310322,422.870374922009 M285.1430679310322,422.870374922009 L291.27786772096334,423.95960599444277 M291.27786772096334,423.95960599444277 L296.9139150973156,425.7288296749403 M296.9139150973156,425.7288296749403 L301.83522310057356,428.1106362534889" stroke="black"  stroke-width="4"  fill="red"/></svg>