<svg viewBox="0 0 800 800" xmlns="http://www.w3.org/2000/svg"><path d="M494.6908514223194,448.96921633821603 L494.4824311388518,396.4043736805618 M659.8657060761146,352.9960398535408 L660.0103747474507,300.63275878565094 M494.6908514223194,448.96921633821603 L659.8657060761146,352.9960398535408 M494.4824311388518,396.4043736805618 L660.0103747474507,300.63275878565094 M359.15781997646513,369.4986977505487 L342.6118031830796,366.45401378932485 M342.6118031830796,366.45401378932485 L325.70252901472094,364.16176079168247 M325.70252901472094,364.16176079168247 L308.52772086914854,362.63473946216953 M308.52772086914854,362.63473946216953 L291.18652331395486,361.88145904062935 M291.18652331395486,361.88145904062935 L273.7789029817281,361.9061326082104 M273.7789029817281,361.9061326082104 L256.40522661441673,362.7086167909018 M256.40522661441673,362.7086167909018 L239.16564723439865,364.2844430818354 M239.16564723439865,364.2844430818354 L222.15965363068148,366.62480916413716 M222.15965363068148,366.62480916413716 L205.48553281233853,369.7166409969226 M205.48553281233853,369.7166409969226 L189.2398085205329,373.5426576434976 M189.2398085205329,373.5426576434976 L173.5168096531644,378.08140244363653 M173.5168096531644,378.08140244363653 L158.40812537309114,383.3073994536136 M158.40812537309114,383.3073994536136 L144.00204224893517,389.19123573220793 M144.00204224893517,389.19123573220793 L130.38315784640872,395.69970757820005 M130.38315784640872,395.69970757820005 L117.63192761078534,402.79593148092215 M117.63192761078534,402.79593148092215 L105.82403463232657,410.43965934060645 M105.82403463232657,410.43965934060645 L95.03008424659606,418.5872749551837 M95.03008424659606,418.5872749551837 L85.31519808170805,427.19212975379946 M85.31519808170805,427.19212975379946 L76.73854159451565,436.20478523772965 M76.73854159451565,436.20478523772965 L69.35286517822118,445.57323182956327 M69.35286517822118,445.57323182956327 L63.2043310665141,455.2431597923435 M63.2043310665141,455.2431597923435 L58.33212814372973,465.1582034970178 M58.33212814372973,465.1582034970178 L54.768021248516675,475.2603794607454 M54.768021248516675,475.2603794607454 L52.53636094179626,485.4902432251906 M52.53636094179626,485.4902432251906 L51.65365121623233,495.78736492870826 M51.65365121623233,495.78736492870826 L52.1284980643527,506.09056199206077 M52.1284980643527,506.09056199206077 L53.96140789016772,516.3383612991532 M53.96140789016772,516.3383612991532 L57.14473935767501,526.4692990146083 M57.14473935767501,526.4692990146083 L61.66268649401951,536.4222915742571 M61.66268649401951,536.4222915742571 L67.49120644258522,546.1371135987488 M67.49120644258522,546.1371135987488 L74.59829719361994,555.5546032318255 M74.59829719361994,555.5546032318255 L82.94381631799058,564.6172602341599 M82.94381631799058,564.6172602341599 L92.47999006130556,573.2694163153212 M92.47999006130556,573.2694163153212 L103.15136530081679,581.4577801436441 M103.15136530081679,581.4577801436441 L114.89534265190241,589.131661272065 M114.89534265190241,589.131661272065 L127.64238686392542,596.243394909343 M127.64238686392542,596.243394909343 L141.31644914772625,602.7486642299907 M141.31644914772625,602.7486642299907 L155.83540607802001,608.6068233995992 M155.83540607802001,608.6068233995992 L171.1116973050629,613.7811061708965 M171.1116973050629,613.7811061708965 L187.05263679142067,618.2390279164622 M187.05263679142067,618.2390279164622 L203.56130645188227,621.9524552523502 M203.56130645188227,621.9524552523502 L220.53682390162504,624.8980000705978 M220.53682390162504,624.8980000705978 L237.8753792849341,627.0570137049469 M237.8753792849341,627.0570137049469 L255.47061582116416,628.4158424394839 M255.47061582116416,628.4158424394839 L273.21450701270965,628.9658771374125 M273.21450701270965,628.9658771374125 L290.9980717904842,628.7036267959988 M290.9980717904842,628.7036267959988 L308.71198693587337,627.6307634861095 M308.71198693587337,627.6307634861095 L326.2474992543473,625.7540698171667 M326.2474992543473,625.7540698171667 L343.4969535606036,623.0854592904564 M343.4969535606036,623.0854592904564 L360.3547568954125,619.6417623497059 M360.3547568954125,619.6417623497059 L376.7177924779386,615.4447564014738 M376.7177924779386,615.4447564014738 L392.4863307331211,610.5209135128837 M392.4863307331211,610.5209135128837 L407.5646031763604,604.901168992958 M407.5646031763604,604.901168992958 L421.86141693612774,598.6208048453547 M421.86141693612774,598.6208048453547 L435.29067437195806,591.7191480032217 M435.29067437195806,591.7191480032217 L447.7719232830416,584.2392495306218 M447.7719232830416,584.2392495306218 L459.2310564849722,576.2275953869304 M459.2310564849722,576.2275953869304 L469.6004026958236,567.733860745179 M469.6004026958236,567.733860745179 L478.81935813819587,558.8104696899297 M478.81935813819587,558.8104696899297 L486.8346404837606,549.5122510566557 M486.8346404837606,549.5122510566557 L493.60058336804286,539.8961311936388 M493.60058336804286,539.8961311936388 L499.0792986398727,530.0207183710514 M499.0792986398727,530.0207183710514 L503.2409464010457,519.9458998553087 M503.2409464010457,519.9458998553087 L506.06376435635275,509.73250636479406 M506.06376435635275,509.73250636479406 L507.5341362464105,499.4419039624662 M507.5341362464105,499.4419039624662 L507.6466362245544,489.1356061240132 M507.6466362245544,489.1356061240132 L506.40393206197837,478.87494368716955 M506.40393206197837,478.87494368716955 L503.816743542534,468.72064760126545 M503.816743542534,468.72064760126545 L499.903627677853,458.73255398167885 M499.903627677853,458.73255398167885 L494.6908514223194,448.96921633821603 M359.15781997646513,369.4986977505487 L358.66194180006175,317.1005327560738 M494.4824311388518,396.4043736805618 L499.70623119575873,406.1473838135676 M499.70623119575873,406.1473838135676 L503.6275935297774,416.1147158617916 M503.6275935297774,416.1147158617916 L506.2201893226221,426.2479400351241 M506.2201893226221,426.2479400351241 L507.4654157632225,436.4873458120669 M507.4654157632225,436.4873458120669 L507.3525237989094,446.7723288598112 M507.3525237989094,446.7723288598112 L505.878833586778,457.04168533981783 M505.878833586778,457.04168533981783 L503.0497763968947,467.23402828529436 M503.0497763968947,467.23402828529436 L498.87899182580406,477.28811697993694 M498.87899182580406,477.28811697993694 L493.38828352847304,487.14324411886616 M493.38828352847304,487.14324411886616 L486.60755083158256,496.739643124257 M486.60755083158256,496.739643124257 L478.57475950013156,506.01882306618666 M478.57475950013156,506.01882306618666 L469.33567127294623,514.9239708442469 M469.33567127294623,514.9239708442469 L458.9436813958232,523.4003660250964 M458.9436813958232,523.4003660250964 L447.4595235766947,531.3956875623694 M447.4595235766947,531.3956875623694 L434.95101556652594,538.8603573740188 M434.95101556652594,538.8603573740188 L421.492426226438,545.7479798737309 M421.492426226438,545.7479798737309 L407.16438445165636,552.015587283178 M407.16438445165636,552.015587283178 L392.0531780472604,557.6239284101771 M392.0531780472604,557.6239284101771 L376.2502022574557,562.5377889236947 M376.2502022574557,562.5377889236947 L359.8514389162624,566.7262926289236 M359.8514389162624,566.7262926289236 L342.9568404609265,570.1630178908155 M342.9568404609265,570.1630178908155 L325.66975463762736,572.8262286838839 M325.66975463762736,572.8262286838839 L308.0960113028695,574.6991264690143 M308.0960113028695,574.6991264690143 L290.34350737179415,575.769820301619 M290.34350737179415,575.769820301619 L272.521240277879,576.0315403968931 M272.521240277879,576.0315403968931 L254.73877861347455,575.4826178458724 M254.73877861347455,575.4826178458724 L237.1053477380419,574.1265370511746 M237.1053477380419,574.1265370511746 L219.72921579696828,571.9718908638147 M219.72921579696828,571.9718908638147 L202.71697680305505,569.0323071414869 M202.71697680305505,569.0323071414869 L186.172671315087,565.3263991645057 M186.172671315087,565.3263991645057 L170.1974048914323,560.8775105701878 M170.1974048914323,560.8775105701878 L154.88830884038958,555.7137210844832 M154.88830884038958,555.7137210844832 L140.3382717794555,549.867453182978 M140.3382717794555,549.867453182978 L126.63504395158549,543.3754024922486 M126.63504395158549,543.3754024922486 L113.86092526928468,536.2781364486209 M113.86092526928468,536.2781364486209 L102.09212619656336,528.6198859966511 M102.09212619656336,528.6198859966511 L91.39832791780464,520.4482230895675 M91.39832791780464,520.4482230895675 L81.84225915437474,511.8137389061113 M81.84225915437474,511.8137389061113 L73.47948541634571,502.7696198213822 M73.47948541634571,502.7696198213822 L66.3578748609425,493.3714238216702 M66.3578748609425,493.3714238216702 L60.51764661700781,483.67653650389184 M60.51764661700781,483.67653650389184 L55.99086076075599,473.74400100014657 M55.99086076075599,473.74400100014657 L52.80160020518656,463.6339210343117 M52.80160020518656,463.6339210343117 L50.965692582833526,453.4072559464902 M50.965692582833526,453.4072559464902 L50.490782899373585,443.12534372177663 M50.490782899373585,443.12534372177663 L51.376350714910814,432.8495307433154 M51.376350714910814,432.8495307433154 L53.61375864270536,422.6408725913889 M53.61375864270536,422.6408725913889 L57.186454626518184,412.55967283598454 M57.186454626518184,412.55967283598454 L62.07002370886886,402.6652508688196 M62.07002370886886,402.6652508688196 L68.23262148492984,393.0154673718153 M68.23262148492984,393.0154673718153 L75.63496450190496,383.6665678341756 M75.63496450190496,383.6665678341756 L84.23078211518396,374.67274550974184 M84.23078211518396,374.67274550974184 L93.96720265368356,366.0858977552845 M93.96720265368356,366.0858977552845 L104.78492701219784,357.95535578308625 M104.78492701219784,357.95535578308625 L116.61868861842777,350.3276663824895 M116.61868861842777,350.3276663824895 L129.39772697094156,343.2463501044258 M129.39772697094156,343.2463501044258 L143.04619449906932,336.75156635271384 M143.04619449906932,336.75156635271384 L157.48346259661173,330.88011700916263 M157.48346259661173,330.88011700916263 L172.62475317883093,325.66513199192804 M172.62475317883093,325.66513199192804 L188.38159269801835,321.13595864914294 M188.38159269801835,321.13595864914294 L204.66219928368253,317.3180159319026 M204.66219928368253,317.3180159319026 L221.3720466802044,314.2327123738225 M221.3720466802044,314.2327123738225 L238.41441016157216,311.89729006111753 M238.41441016157216,311.89729006111753 L255.69079886139346,310.32479359234674 M255.69079886139346,310.32479359234674 L273.10151828016035,309.52400543809046 M273.10151828016035,309.52400543809046 L290.54620878903387,309.4993840209271 M290.54620878903387,309.4993840209271 L307.92429690519236,310.25107239208864 M307.92429690519236,310.25107239208864 L325.1356102303466,311.7748669759024 M325.1356102303466,311.7748669759024 L342.0808001052028,314.0622777220743 M342.0808001052028,314.0622777220743 L358.66194180006175,317.1005327560738 M625.423120549003,333.1106038278763 L625.4943828628377,280.7894816122442 M659.8657060761146,352.9960398535408 L625.423120549003,333.1106038278763 M660.0103747474507,300.63275878565094 L625.4943828628377,280.7894816122442 M625.3888415917443,320.49703246498194 L622.7791972136461,320.68011264957585 M622.7791972136461,320.68011264957585 L620.3219873479503,321.2187410940479 M620.3219873479503,321.2187410940479 L618.1598488972419,322.0817045041436 M618.1598488972419,322.0817045041436 L616.4183565923425,323.21897306388917 M616.4183565923425,323.21897306388917 L615.1987465120186,324.5645836997021 M615.1987465120186,324.5645836997021 L614.5720264030977,326.0404421618939 M614.5720264030977,326.0404421618939 L614.5748241506618,327.5608403340634 M614.5748241506618,327.5608403340634 L615.2072012884325,329.03741567467665 M615.2072012884325,329.03741567467665 L616.4326141745717,330.38429708347155 M616.4326141745717,330.38429708347155 L618.1799699945536,331.52309702844303 M618.1799699945536,331.52309702844303 L620.3477490476341,332.3875030375385 M620.3477490476341,332.3875030375385 L622.8098873020762,332.9271558005651 M622.8098873020762,332.9271558005651 L625.423120549003,333.1106038278763 M625.3888415917443,320.49703246498194 L674.5050184797965,292.0796443813984 M674.5050184797965,292.0796443813984 L629.3254082316513,266.14144685656987 M629.3254082316513,266.14144685656987 L580.2088857511542,294.43898787292414 M558.4419169042347,294.43898787292414 L558.754128249246,295.94057459641584 M558.754128249246,295.94057459641584 L559.6809244245482,297.3552306052153 M559.6809244245482,297.3552306052153 L561.1686115891739,298.6006530706642 M561.1686115891739,298.6006530706642 L563.1308122476244,299.6043405147164 M563.1308122476244,299.6043405147164 L565.4534659694468,300.3078339145424 M565.4534659694468,300.3078339145424 L568.0014543625199,300.67013757509676 M568.0014543625199,300.67013757509676 L570.6265021886068,300.6701381044692 M570.6265021886068,300.6701381044692 L573.1758193463872,300.30783310017125 M573.1758193463872,300.30783310017125 L575.501050924742,299.6043410847111 M575.501050924742,299.6043410847111 L577.466932264762,298.6006535591514 M577.466932264762,298.6006535591514 L578.9591859301647,297.35523076801144 M578.9591859301647,297.35523076801144 L579.8911667871755,295.94057443365716 M579.8911667871755,295.94057443365716 L580.2088857511542,294.43898787292414 M558.4419169042347,294.43898787292414 L524.3245795139621,274.7413339466169 M524.3245795139621,274.7413339466169 L359.15781997646513,369.4986977505487 M304.12486197059803,479.87994735479344 L299.03178007868405,477.4068507705292 M299.03178007868405,477.4068507705292 L293.2000523544375,475.5698144102189 M293.2000523544375,475.5698144102189 L286.8531661158672,474.4388333792027 M286.8531661158672,474.4388333792027 L280.23400595219334,474.05699734108646 M280.23400595219334,474.05699734108646 L273.59578365712974,474.4388347193202 M273.59578365712974,474.4388347193202 L267.19242344522263,475.5698087136876 M267.19242344522263,475.5698087136876 L261.26898598160824,477.4068497649631 M261.26898598160824,477.4068497649631 L256.05242048402204,479.87994735479344 M256.05242048402204,479.87994735479344 L251.74296629733536,482.8947388144994 M251.74296629733536,482.8947388144994 L248.5063781151178,486.3360981165081 M248.5063781151178,486.3360981165081 L246.46777651386924,490.07231081139173 M246.46777651386924,490.07231081139173 L245.70645060216043,493.9602158263216 M245.70645060216043,493.9602158263216 L246.25285342163386,497.8505307493332 M246.25285342163386,497.8505307493332 L248.0871321859314,501.59364015285416 M248.0871321859314,501.59364015285416 L251.13983639688774,505.0452951407983 M251.13983639688774,505.0452951407983 L255.29436893741814,508.0722456521622 M255.29436893741814,508.0722456521622 L260.3912584931055,510.5575158224502 M260.3912584931055,510.5575158224502 L266.2344900861788,512.4048632867455 M266.2344900861788,512.4048632867455 L272.5988249118563,513.5427232454497 M272.5988249118563,513.5427232454497 L279.23866896899233,513.926989398796 M279.23866896899233,513.926989398796 L285.89771460556426,513.542732685131 M285.89771460556426,513.542732685131 L292.3188487677096,512.4048690169391 M292.3188487677096,512.4048690169391 L298.25434215601297,510.55749526723343 M298.25434215601297,510.55749526723343 L303.47532263073435,508.0722456521621 M303.47532263073435,508.0722456521621 L307.7809690571454,505.04528066381124 M307.7809690571454,505.04528066381124 L311.0060161122417,501.5936317406432 M311.0060161122417,501.5936317406432 L313.0271877717101,497.8505294041847 M313.0271877717101,497.8505294041847 L313.7678111833029,493.960205071827 M313.7678111833029,493.960205071827 L313.20060372561056,490.07229872010817 M313.20060372561056,490.07229872010817 L311.3485324056727,486.33608972480215 M311.3485324056727,486.33608972480215 L308.2838094902808,482.89474585965047 M308.2838094902808,482.89474585965047 L304.12486197059803,479.87994735479344 M625.4943828628377,280.7894816122442 L622.8755968314894,280.6064231430393 M622.8755968314894,280.6064231430393 L620.4082252001665,280.06791641797764 M620.4082252001665,280.06791641797764 L618.235837056414,279.2053463201701 M618.235837056414,279.2053463201701 L616.4847646401282,278.06896546338965 M616.4847646401282,278.06896546338965 L615.2567435250252,276.724945733481 M615.2567435250252,276.724945733481 L614.623017568099,275.2515083446632 M614.623017568099,275.2515083446632 L614.6202079283562,273.7343420372407 M614.6202079283562,273.7343420372407 L615.2482528015909,272.26162152259406 M615.2482528015909,272.26162152259406 L616.4704464463766,270.9188725554985 M616.4704464463766,270.9188725554985 L618.2156304195588,269.784023074783 M618.2156304195588,269.784023074783 L620.3823539796871,268.9228955668966 M620.3823539796871,268.9228955668966 L622.8447762688639,268.3854131513717 M622.8447762688639,268.3854131513717 L625.4599581745298,268.2027225255122 M625.3888415917443,320.49703246498194 L625.4599581745298,268.2027225255122 M524.3245795139621,274.7413339466169 L524.181738447332,222.54474418652092 M524.181738447332,222.54474418652092 L358.66194180006175,317.1005327560738 M558.4419169042347,294.43898787292414 L558.3711009100076,242.20024178881874 M558.3711009100076,242.20024178881874 L524.181738447332,222.54474418652092 M580.2088857511542,294.43898787292414 L580.1841684181776,242.20024178881874 M580.1841684181776,242.20024178881874 L579.8657734754293,243.6986201667259 M579.8657734754293,243.6986201667259 L578.9318154505578,245.11025475575406 M578.9318154505578,245.11025475575406 L577.4363976041102,246.3530178581417 M577.4363976041102,246.3530178581417 L575.466348621929,247.35456232548512 M575.466348621929,247.35456232548512 L573.1361882654327,248.05655246185609 M573.1361882654327,248.05655246185609 L570.5814681875953,248.41808405062017 M570.5814681875953,248.41808405062017 L567.9508581445328,248.41808352237774 M567.9508581445328,248.41808352237774 L565.3974724672782,248.0565532744887 M565.3974724672782,248.0565532744887 L563.0699009053967,247.35456175670743 M563.0699009053967,247.35456175670743 L561.1035482152184,246.35301737069756 M561.1035482152184,246.35301737069756 L559.6127162365291,245.11025459330557 M559.6127162365291,245.11025459330557 L558.6839648846873,243.698620329137 M558.6839648846873,243.698620329137 L558.3711009100076,242.20024178881874 M648.4786954941738,255.1066482890521 L644.4081219861608,257.4518310297239 M648.4786954941738,255.1066482890521 L648.5981777842655,202.95221273161758 M648.5981777842655,202.95221273161758 L580.1841684181776,242.20024178881874 M629.3519520429444,248.63634227975984 L629.3254082316513,266.14144685656987 M644.4453310498747,239.95297102900201 L629.3519520429444,248.63634227975984 M644.4081219861608,257.4518310297239 L644.4453310498747,239.95297102900201 M674.5637124411513,274.55595179286786 L629.3519520429444,248.63634227975984 M674.5637124411513,274.55595179286786 L674.5050184797965,292.0796443813984 M625.4599581745298,268.2027225255122 L749.5092171006264,196.7350893657141 M749.177324807064,248.87612076768704 L749.5092171006264,196.7350893657141 M689.5875300892939,283.3532814427858 L749.177324807064,248.87612076768704 M689.6568888725357,265.8358337343546 L689.5875300892939,283.3532814427858 M674.5637124411513,274.55595179286786 L689.6568888725357,265.8358337343546 M304.12486197059803,479.87994735479344 L303.50624210266534,427.25086007355196 M303.50624210266534,427.25086007355196 L307.673983100801,430.2594102130664 M307.673983100801,430.2594102130664 L310.7451296619777,433.69362548636 M310.7451296619777,433.69362548636 L312.6010050460289,437.42209969609917 M312.6010050460289,437.42209969609917 L313.16924637235144,441.30196230656 M313.16924637235144,441.30196230656 L312.42684182734456,445.18424309288787 M312.42684182734456,445.18424309288787 L310.40113740412437,448.91961118418874 M310.40113740412437,448.91961118418874 L307.16897586391224,452.36413234826534 M307.16897586391224,452.36413234826534 L302.8539038181201,455.3848499312322 M302.8539038181201,455.3848499312322 L297.6215479386219,457.8649725498194 M297.6215479386219,457.8649725498194 L291.67316747372655,459.70853659697127 M291.67316747372655,459.70853659697127 L285.23813298476665,460.8440543163732 M285.23813298476665,460.8440543163732 L278.564712249733,461.22751890328504 M278.564712249733,461.22751890328504 L271.9105759325128,460.844044896152 M271.9105759325128,460.844044896152 L265.53258593446924,459.7085308785927 M265.53258593446924,459.7085308785927 L259.6768653335055,457.8649930626401 M259.6768653335055,457.8649930626401 L254.56913574047252,455.3848499312322 M254.56913574047252,455.3848499312322 L250.405829442187,452.3641467953656 M250.405829442187,452.3641467953656 L247.34675393195255,448.9196195790231 M247.34675393195255,448.9196195790231 L245.50874810597213,445.184244435256 M245.50874810597213,445.184244435256 L244.96140123764593,441.30197303881164 M244.96140123764593,441.30197303881164 L245.72459736172863,437.4221117623589 M245.72459736172863,437.4221117623589 L247.76780646267537,433.6936338606879 M247.76780646267537,433.6936338606879 L251.01155822659717,430.2594031825133 M251.01155822659717,430.2594031825133 L255.33045382416617,427.25086007355196 M255.33045382416617,427.25086007355196 L260.5583750060489,424.78289047010344 M260.5583750060489,424.78289047010344 L266.49464711863845,422.9496598972809 M266.49464711863845,422.9496598972809 L272.91183069541336,421.82103239988396 M272.91183069541336,421.82103239988396 L279.56433822795145,421.4399873409031 M279.56433822795145,421.4399873409031 L286.19770161312283,421.82103106254715 M286.19770161312283,421.82103106254715 L292.55816824728333,422.94966558199445 M292.55816824728333,422.94966558199445 L298.4023359642758,424.782891473584 M298.4023359642758,424.782891473584 L303.50624210266534,427.25086007355196 M703.9991566317854,223.11960101972846 L704.2352263622964,171.03412286258754 M749.177324807064,248.87612076768704 L703.9991566317854,223.11960101972846 M749.5092171006264,196.7350893657141 L704.2352263622964,171.03412286258754 M659.2931189464502,248.87612593620173 L659.4353584928162,196.73509452310384 M703.9991566317854,223.11960101972846 L659.2931189464502,248.87612593620173 M704.2352263622964,171.03412286258754 L659.4353584928162,196.73509452310384 M659.2931189464502,248.87612593620173 L659.0288480492162,250.2620001408203 M659.0288480492162,250.2620001408203 L658.2339326734929,251.57867119002094 M658.2339326734929,251.57867119002094 L656.9480876376792,252.76005027024144 M656.9480876376792,252.76005027024144 L655.2357165184117,253.7468038194018 M655.2357165184117,253.7468038194018 L653.1826796065797,254.4893503121279 M653.1826796065797,254.4893503121279 L650.8920037360134,254.95035845343176 M650.8920037360134,254.95035845343176 L648.4786954941738,255.1066482890521 M659.4353584928162,196.73509452310384 L659.1705460440177,198.11798604961712 M659.1705460440177,198.11798604961712 L658.3739683020968,199.43182397087912 M658.3739683020968,199.43182397087912 L657.085422834678,200.61066154256696 M657.085422834678,200.61066154256696 L655.3694483041265,201.59529264981836 M655.3694483041265,201.59529264981836 L653.3120856780141,202.33624219447722 M653.3120856780141,202.33624219447722 L651.0165790305938,202.7962589698455 M651.0165790305938,202.7962589698455 L648.5981777842655,202.95221273161758 M689.5875300892939,283.3532814427858 L644.4081219861608,257.4518310297239 M689.6568888725357,265.8358337343546 L644.4453310498747,239.95297102900201" stroke="black"  stroke-width="4"  fill="red"/>
<path d="M689.5875300892939,283.3532814427858 L682.0489522037466,287.71491353520605 M689.5875300892939,283.3532814427858 L644.4081219861608,257.4518310297239 M644.4081219861608,257.4518310297239 L636.8694374242925,261.7950993399658 M636.8694374242925,261.7950993399658 L629.3254082316513,266.14144685656987 M674.5050184797965,292.0796443813984 L629.3254082316513,266.14144685656987 M682.0489522037466,287.71491353520605 L674.5050184797965,292.0796443813984 M689.6221971765085,274.59766522371484 L689.5875300892939,283.3532814427858 M682.0489522037466,287.71491353520605 L683.727723087776,286.52461545122236 M683.727723087776,286.52461545122236 L685.3237588780135,284.9552030259562 M685.3237588780135,284.9552030259562 L686.7571492363483,283.08531900386197 M686.7571492363483,283.08531900386197 L687.9561364160164,281.0086108332464 M687.9561364160164,281.0086108332464 L688.8606908833933,278.82905798064803 M688.8606908833933,278.82905798064803 L689.4254863451202,276.6557979749731 M689.4254863451202,276.6557979749731 L689.6221971765085,274.59766522371484 M644.4267199309583,248.7054988238575 L644.4081219861608,257.4518310297239 M636.8694374242925,261.7950993399658 L638.5478283278446,260.60912180107334 M638.5478283278446,260.60912180107334 L640.1426981665389,259.04427750953784 M640.1426981665389,259.04427750953784 L641.5741948385878,257.1789805398517 M641.5741948385878,257.1789805398517 L642.7706552203924,255.10664890840678 M642.7706552203924,255.10664890840678 L643.6721761107831,252.93104327873976 M643.6721761107831,252.93104327873976 L644.2335829957826,250.76110380748418 M644.2335829957826,250.76110380748418 L644.4267199309583,248.7054988238575 M689.6568888725357,265.8358337343546 L689.6221971765085,274.59766522371484 M689.6568888725357,265.8358337343546 L644.4453310498747,239.95297102900201 M644.4453310498747,239.95297102900201 L644.4267199309583,248.7054988238575 M719.9215037221104,309.35966886398677 L674.5343550406374,283.3209090376925 M674.5343550406374,283.3209090376925 L674.7170849091043,285.1610089286641 M674.7170849091043,285.1610089286641 L675.2690979296772,286.68964977352744 M675.2690979296772,286.68964977352744 L676.1625856818455,287.8302382760065 M676.1625856818455,287.8302382760065 L677.3526306090295,288.5256942784358 M677.3526306090295,288.5256942784358 L678.7794702479581,288.74129792226955 M678.7794702479581,288.74129792226955 L680.3715160898548,288.4663980601607 M680.3715160898548,288.4663980601607 L682.0489522037466,287.71491353520605 M689.6221971765085,274.59766522371484 L689.4408904165875,272.7577821488007 M689.4408904165875,272.7577821488007 L688.8905557158541,271.2283889537508 M688.8905557158541,271.2283889537508 L687.9986564809301,270.0862367317329 M687.9986564809301,270.0862367317329 L686.80980823932,269.388708171284 M686.80980823932,269.388708171284 L685.3835319414427,269.17093617534675 M685.3835319414427,269.17093617534675 L683.7913045234877,269.444000166421 M683.7913045234877,269.444000166421 L682.1129823709705,270.1943433969889 M682.1129823709705,270.1943433969889 L680.43278387789,271.38442799803323 M680.43278387789,271.38442799803323 L678.8350742637037,272.9545898484169 M678.8350742637037,272.9545898484169 L677.40009089583,274.8260392916154 M677.40009089583,274.8260392916154 L676.1999070315042,276.9048200214682 M676.1999070315042,276.9048200214682 L675.2947937157061,279.0865395256497 M675.2947937157061,279.0865395256497 L674.7301753344898,281.2616383273273 M674.7301753344898,281.2616383273273 L674.5343550406374,283.3209090376925 M719.9215037221104,309.35966886398677 L720.1517895346999,307.13306167600865 M720.1517895346999,307.13306167600865 L720.8074927691576,304.78087376526906 M720.8074927691576,304.78087376526906 L721.8505197632816,302.43997934907026 M721.8505197632816,302.43997934907026 L723.2201870547924,300.2466233166758 M723.2201870547924,300.2466233166758 L724.8367717346438,298.3284606873242 M724.8367717346438,298.3284606873242 L726.606175160853,296.7970842272616 M726.606175160853,296.7970842272616 L728.4254108554763,295.7415299077603 M728.4254108554763,295.7415299077603 L730.1886441538978,295.22307761825454 M730.1886441538978,295.22307761825454 L731.7933588077753,295.2717098122554 M731.7933588077753,295.2717098122554 L733.1463236481343,295.8844089049171 M733.1463236481343,295.8844089049171 L734.1690060927536,297.02536654478456 M734.1690060927536,297.02536654478456 L734.8021161884549,298.6281190158356 M734.8021161884549,298.6281190158356 L735.0090064886157,300.5994443991604 M735.0090064886157,300.5994443991604 L734.7777955118065,302.8247883443185 M734.7777955118065,302.8247883443185 L734.1219897149037,305.17493440224365 M734.1219897149037,305.17493440224365 L733.0797186994649,307.5134713505922 M733.0797186994649,307.5134713505922 L731.7114882604513,309.7046943497815 M731.7114882604513,309.7046943497815 L730.0966921268723,311.6214397874589 M730.0966921268723,311.6214397874589 L728.3290237172724,313.1524345902201 M728.3290237172724,313.1524345902201 L726.5110640651769,314.2087361753886 M726.5110640651769,314.2087361753886 L724.7483555104297,314.72889346443526 M724.7483555104297,314.72889346443526 L723.1433020590003,314.6825274515074 M723.1433020590003,314.6825274515074 L721.7892079854037,314.072141536741 M721.7892079854037,314.072141536741 L720.764864580689,312.9330113965668 M720.764864580689,312.9330113965668 L720.1299467845539,311.3311821063297 M720.1299467845539,311.3311821063297 L719.9215037221104,309.35966886398677 M674.5050184797965,292.0796443813984 L674.5343550406374,283.3209090376925 M629.3254082316513,266.14144685656987 L629.3386754349607,257.39199566405404 M629.3386754349607,257.39199566405404 L629.3519520429444,248.63634227975984 M674.5637124411513,274.55595179286786 L629.3519520429444,248.63634227975984 M674.5343550406374,283.3209090376925 L674.5637124411513,274.55595179286786 M629.3386754349607,257.39199566405404 L629.5249843195412,259.23048907931786 M629.5249843195412,259.23048907931786 L630.08040091964,260.7585271332973 M630.08040091964,260.7585271332973 L630.9769463771672,261.89954634288046 M630.9769463771672,261.89954634288046 L632.1695501436013,262.5964443802197 M632.1695501436013,262.5964443802197 L633.5983218169545,262.81442843098375 M633.5983218169545,262.81442843098375 L635.1915763454999,262.5427274034732 M635.1915763454999,262.5427274034732 L636.8694374242925,261.7950993399658 M629.3386754349607,257.39199566405404 L584.3332468721893,231.57222995350594 M584.3332468721893,231.57222995350594 L584.5532381921291,233.5386757716588 M584.5532381921291,233.5386757716588 L585.1990472185839,235.13894174750186 M585.1990472185839,235.13894174750186 L586.2329927867252,236.28010197727411 M586.2329927867252,236.28010197727411 L587.5948432071027,236.8959911414317 M587.5948432071027,236.8959911414317 L589.2053577995086,236.95101134377217 M589.2053577995086,236.95101134377217 L590.9709160584009,236.442154281258 M590.9709160584009,236.442154281258 L592.7889490184725,235.3991410558906 M592.7889490184725,235.3991410558906 L594.5539100918523,233.88265048151135 M594.5539100918523,233.88265048151135 L596.1633749522796,231.98078333066076 M596.1633749522796,231.98078333066076 L597.5239588797974,229.8039499793971 M597.5239588797974,229.8039499793971 L598.5567111556267,227.47848015370965 M598.5567111556267,227.47848015370965 L599.2016778787804,225.1393215489955 M599.2016778787804,225.1393215489955 L599.4213584379294,222.92224838195705 M599.4213584379294,222.92224838195705 L599.2029161422134,220.95599708991028 M599.2029161422134,220.95599708991028 L598.5589041428651,219.3548265023823 M598.5589041428651,219.3548265023823 L597.5266043854189,218.21186507330123 M597.5266043854189,218.21186507330123 L596.1658670287105,217.59369071330372 M596.1658670287105,217.59369071330372 L594.555677763516,217.5364275745075 M594.555677763516,217.5364275745075 L592.789587062939,218.04359285996924 M592.789587062939,218.04359285996924 L590.9702779051971,219.08585892847452 M590.9702779051971,219.08585892847452 L589.2035892384773,220.6027181303462 M589.2035892384773,220.6027181303462 L587.5923491258637,222.50597935185777 M587.5923491258637,222.50597935185777 L586.2303444780252,224.6849177804861 M586.2303444780252,224.6849177804861 L585.1968514829425,227.01271869646814 M585.1968514829425,227.01271869646814 L584.5519982278059,229.3539004219965 M584.5519982278059,229.3539004219965 L584.3332468721893,231.57222995350594 M636.9013176448259,244.29311706831197 L635.2215002073576,245.47887920328003 M635.2215002073576,245.47887920328003 L633.624959650929,247.04446750208018 M633.624959650929,247.04446750208018 L632.1918744893703,248.91132204141877 M632.1918744893703,248.91132204141877 L630.9942224636932,250.98571750085927 M630.9942224636932,250.98571750085927 L630.092147288188,253.16348191129998 M630.092147288188,253.16348191129998 L629.5309206653505,255.33525469652506 M629.5309206653505,255.33525469652506 L629.3386754349607,257.39199566405404 M644.4267199309583,248.7054988238575 L644.2418330810746,246.86722413390845 M644.2418330810746,246.86722413390845 L643.6880916940669,245.33843915888758 M643.6880916940669,245.33843915888758 L642.7931302320475,244.19586407122137 M642.7931302320475,244.19586407122137 L641.6017181104042,243.49690220709988 M641.6017181104042,243.49690220709988 L640.1735052165068,243.2767576850324 M640.1735052165068,243.2767576850324 L638.5800659307845,243.54662831225102 M638.5800659307845,243.54662831225102 L636.9013176448259,244.29311706831197 M682.1129823709705,270.1943433969889 L689.6568888725357,265.8358337343546 M636.9013176448259,244.29311706831197 L644.4453310498747,239.95297102900201 M674.5637124411513,274.55595179286786 L682.1129823709705,270.1943433969889 M629.3519520429444,248.63634227975984 L636.9013176448259,244.29311706831197" stroke="black"  stroke-width="4"  fill="red"/></svg>