<svg viewBox="0 0 800 800" xmlns="http://www.w3.org/2000/svg"><path d="M494.97989175221215,448.77680256910935 L494.7633549937158,396.2131108852991 M660.0519661167066,352.8392078577179 L660.2023330497511,300.4848710010024 M494.97989175221215,448.77680256910935 L660.0519661167066,352.8392078577179 M494.7633549937158,396.2131108852991 L660.2023330497511,300.4848710010024 M625.1997477828236,332.717270220795 L625.2728915484356,280.40727688528597 M660.0519661167066,352.8392078577179 L625.1997477828236,332.717270220795 M660.2023330497511,300.4848710010024 L625.2728915484356,280.40727688528597 M617.7703962058479,330.93889059778775 L617.8271243586082,278.63282357771004 M625.1997477828236,332.717270220795 L623.1507509336245,332.60058675705403 M623.1507509336245,332.60058675705403 L621.1799617137319,332.25503336920144 M621.1799617137319,332.25503336920144 L619.3632163542544,331.69392815913864 M619.3632163542544,331.69392815913864 L617.7703962058479,330.93889059778775 M625.2728915484356,280.40727688528597 L623.2193689869346,280.2908509998922 M623.2193689869346,280.2908509998922 L621.2442256137524,279.9460604496083 M621.2442256137524,279.9460604496083 L619.4234654281472,279.3861940199424 M619.4234654281472,279.3861940199424 L617.8271243586082,278.63282357771004 M614.6869356527454,326.6476953075544 L614.7368371795153,274.3511072442015 M617.7703962058479,330.93889059778775 L616.4627368853222,330.0190044970919 M616.4627368853222,330.0190044970919 L615.490468782235,328.9696887463272 M615.490468782235,328.9696887463272 L614.8908880527192,327.83132433557313 M614.8908880527192,327.83132433557313 L614.6869356527454,326.6476953075544 M617.8271243586082,278.63282357771004 L616.5165734349076,277.71496886684736 M616.5165734349076,277.71496886684736 L615.5421540691895,276.66797070968977 M615.5421540691895,276.66797070968977 L614.9412447940231,275.5321210339974 M614.9412447940231,275.5321210339974 L614.7368371795153,274.3511072442015 M625.1658993627558,320.5843233710052 L625.2388935372667,268.3011405344001 M614.6869356527454,326.6476953075544 L614.9474883092729,325.2979322982298 M614.9474883092729,325.2979322982298 L615.7211104627452,324.016135899278 M615.7211104627452,324.016135899278 L616.9688734201491,322.8665182591055 M616.9688734201491,322.8665182591055 L618.6281305152226,321.9066326696845 M618.6281305152226,321.9066326696845 L620.615679422897,321.1845098383929 M620.615679422897,321.1845098383929 L622.8319339788341,320.7362697854121 M622.8319339788341,320.7362697854121 L625.1658993627558,320.5843233710052 M614.7368371795153,274.3511072442015 L614.9979591953,273.0043271821994 M614.9979591953,273.0043271821994 L615.7732831083229,271.7253641518939 M615.7732831083229,271.7253641518939 L617.0237942863442,270.5782882223909 M617.0237942863442,270.5782882223909 L618.6867079124083,269.6205252374099 M618.6867079124083,269.6205252374099 L620.6786383064589,268.8999994688753 M620.6786383064589,268.8999994688753 L622.8997799384277,268.452750850837 M622.8997799384277,268.452750850837 L625.2388935372667,268.3011405344001 M749.2941480495714,248.76083390690292 L749.6388831312995,196.63748057050543 M625.1658993627558,320.5843233710052 L749.2941480495714,248.76083390690292 M625.2388935372667,268.3011405344001 L749.6388831312995,196.63748057050543 M704.1304511615311,223.02527079282657 L704.3756153367902,170.95965304692123 M749.2941480495714,248.76083390690292 L704.1304511615311,223.02527079282657 M749.6388831312995,196.63748057050543 L704.3756153367902,170.95965304692123 M659.45707399834,248.76083887600322 L659.6048175967869,196.63748552848165 M704.1304511615311,223.02527079282657 L659.45707399834,248.76083887600322 M704.3756153367902,170.95965304692123 L659.6048175967869,196.63748552848165 M649.0590348129964,254.75097130786338 L649.1840415970578,202.61421486895125 M659.45707399834,248.76083887600322 L659.2032336475854,250.09324252198832 M659.2032336475854,250.09324252198832 L658.4391024021445,251.35911298882888 M658.4391024021445,251.35911298882888 L657.2028570373739,252.49491135362223 M657.2028570373739,252.49491135362223 L655.5564168343584,253.44359331801797 M655.5564168343584,253.44359331801797 L653.5823362092119,254.15749036493935 M653.5823362092119,254.15749036493935 L651.3796797302903,254.60071156012725 M651.3796797302903,254.60071156012725 L649.0590348129964,254.75097130786338 M659.6048175967869,196.63748552848165 L659.3504373071235,197.96690673165273 M659.3504373071235,197.96690673165273 L658.5846459726906,199.22994429352383 M658.5846459726906,199.22994429352383 L657.3457030042874,200.36320134936744 M657.3457030042874,200.36320134936744 L655.6956626270596,201.30976103821268 M655.6956626270596,201.30976103821268 L653.717259771352,202.02206126204703 M653.717259771352,202.02206126204703 L651.5097760708547,202.46429116880364 M651.5097760708547,202.46429116880364 L649.1840415970578,202.61421486895125 M580.0002718831809,294.5345428213379 L579.9736824080771,242.30910749882617 M649.0590348129964,254.75097130786338 L580.0002718831809,294.5345428213379 M649.1840415970578,202.61421486895125 L579.9736824080771,242.30910749882617 M569.5212963501051,300.5713012980535 L569.4716141487866,248.33246118213606 M580.0002718831809,294.5345428213379 L579.7364287810498,295.8773153720395 M579.7364287810498,295.8773153720395 L578.960763385434,297.1530377857135 M578.960763385434,297.1530377857135 L577.7120296219755,298.2976767172074 M577.7120296219755,298.2976767172074 L576.052770831973,299.25374477571194 M576.052770831973,299.25374477571194 L574.0661893347365,299.9731993387034 M574.0661893347365,299.9731993387034 L571.8519746261129,300.41987152512496 M571.8519746261129,300.41987152512496 L569.5212963501051,300.5713012980535 M579.9736824080771,242.30910749882617 L579.7092554191036,243.6488972151413 M579.7092554191036,243.6488972151413 L578.9318792393176,244.92178635958084 M578.9318792393176,244.92178635958084 L577.6803929663371,246.0638836611318 M577.6803929663371,246.0638836611318 L576.0174776340964,247.01782917736568 M576.0174776340964,247.01782917736568 L574.026518916854,247.73568672140232 M574.026518916854,247.73568672140232 L571.8074261342854,248.1813674978997 M571.8074261342854,248.1813674978997 L569.4716141487866,248.33246118213606 M562.12037395173,298.80253733771656 L562.0544016706231,246.5676234111956 M569.5212963501051,300.5713012980535 L567.4783911157037,300.45524761243246 M567.4783911157037,300.45524761243246 L565.5145540726028,300.1115629622935 M565.5145540726028,300.1115629622935 L563.7053513941386,299.55349206943595 M563.7053513941386,299.55349206943595 L562.12037395173,298.80253733771656 M569.4716141487866,248.33246118213606 L567.4242101060222,248.21666506948293 M567.4242101060222,248.21666506948293 L565.4560496084216,247.87374323250503 M565.4560496084216,247.87374323250503 L563.6428654081994,247.31691107964775 M563.6428654081994,247.31691107964775 L562.0544016706231,246.5676234111956 M559.0653239554115,294.5345428213379 L558.9926504387763,242.30910749882605 M562.12037395173,298.80253733771656 L560.8205555244726,297.88762512776873 M560.8205555244726,297.88762512776873 L559.8558249856876,296.8439826345142 M559.8558249856876,296.8439826345142 L559.2631889258967,295.7117723691219 M559.2631889258967,295.7117723691219 L559.0653239554115,294.5345428213379 M562.0544016706231,246.5676234111956 L560.7517262541444,245.6547425207222 M560.7517262541444,245.6547425207222 L559.7848777231955,244.61341753771433 M559.7848777231955,244.61341753771433 L559.1909437668079,243.48372191321067 M559.1909437668079,243.48372191321067 L558.9926504387763,242.30910749882605 M524.5537278824847,274.60926353847 L524.4053349170559,222.42816887657068 M559.0653239554115,294.5345428213379 L524.5537278824847,274.60926353847 M558.9926504387763,242.30910749882605 L524.4053349170559,222.42816887657068 M359.49038955832106,369.2837745644415 L358.9751510734154,316.8933097673824 M524.5537278824847,274.60926353847 L359.49038955832106,369.2837745644415 M524.4053349170559,222.42816887657068 L358.9751510734154,316.8933097673824 M114.7320557203688,589.191701777373 L113.65504957561274,536.3277572795457 M359.49038955832106,369.2837745644415 L343.4046968127755,366.30909563213254 M343.4046968127755,366.30909563213254 L326.97230873329516,364.0457854079272 M326.97230873329516,364.0457854079272 L310.2829136784413,362.5057628202253 M310.2829136784413,362.5057628202253 L293.42742537462414,361.6971528003855 M293.42742537462414,361.6971528003855 L276.49768308189493,361.6241800411608 M276.49768308189493,361.6241800411608 L259.585774745522,362.2872429609734 M259.585774745522,362.2872429609734 L242.78378374873785,363.6828587239098 M242.78378374873785,363.6828587239098 L226.18321861467015,365.8036819043208 M226.18321861467015,365.8036819043208 L209.87467575443054,368.63853107841146 M209.87467575443054,368.63853107841146 L193.947259885137,372.1724743620697 M193.947259885137,372.1724743620697 L178.48823642547404,376.386842548005 M178.48823642547404,376.386842548005 L163.5825331746667,381.25933771756934 M163.5825331746667,381.25933771756934 L149.31239124936013,386.7641062241768 M149.31239124936013,386.7641062241768 L135.7568284691916,392.87186824325187 M135.7568284691916,392.87186824325187 L122.99135331392654,399.5500541486699 M122.99135331392654,399.5500541486699 L111.08738707646023,406.76291809714377 M111.08738707646023,406.76291809714377 L100.1120929974361,414.471670467756 M100.1120929974361,414.471670467756 L90.12774495544568,422.6348247187906 M90.12774495544568,422.6348247187906 L81.19160858068187,431.208126397912 M81.19160858068187,431.208126397912 L73.35545549497408,440.14498486969126 M73.35545549497408,440.14498486969126 L66.66521003103298,449.3965760837833 M66.66521003103298,449.3965760837833 L61.16077812316928,458.9121492450405 M61.16077812316928,458.9121492450405 L56.87570269729417,468.6392413689438 M56.87570269729417,468.6392413689438 L53.836884828157054,478.5239853714214 M53.836884828157054,478.5239853714214 L52.06444172303634,488.51134266772067 M52.06444172303634,488.51134266772067 L51.571493076830166,498.5454309024866 M51.571493076830166,498.5454309024866 L52.36404135328303,508.56983407526707 M52.36404135328303,508.56983407526707 L54.44077043389291,518.5279158455113 M54.44077043389291,518.5279158455113 L57.793118428834646,528.3631360790014 M57.793118428834646,528.3631360790014 L62.405204356105855,538.019328804917 M62.405204356105855,538.019328804917 L68.25376410477384,547.4411628840863 M68.25376410477384,547.4411628840863 L75.3083612856052,556.5743448030859 M75.3083612856052,556.5743448030859 L83.5313776326858,565.3660330707398 M83.5313776326858,565.3660330707398 L92.87830863142301,573.7650944489714 M92.87830863142301,573.7650944489714 L103.2977877071599,581.7225384135972 M103.2977877071599,581.7225384135972 L114.7320557203688,589.191701777373 M358.9751510734154,316.8933097673824 L342.85396268531895,313.9251586277364 M342.85396268531895,313.9251586277364 L326.38529401938945,311.66681733156463 M326.38529401938945,311.66681733156463 L309.65902527612684,310.13017683524356 M309.65902527612684,310.13017683524356 L292.76626446593406,309.32334298145287 M292.76626446593406,309.32334298145287 L275.7990470944029,309.2505305237204 M275.7990470944029,309.2505305237204 L258.8496579956998,309.91213694555967 M258.8496579956998,309.91213694555967 L242.0103777144925,311.3046876028041 M242.0103777144925,311.3046876028041 L225.3729111301201,313.4208543329901 M225.3729111301201,313.4208543329901 L209.02804963736838,316.2494819587757 M209.02804963736838,316.2494819587757 L193.06509044755978,319.77567359331147 M193.06509044755978,319.77567359331147 L177.57148837340145,323.9808036898024 M177.57148837340145,323.9808036898024 L162.63235654086398,328.8426263433426 M162.63235654086398,328.8426263433426 L148.33011667325013,334.3353480310618 M148.33011667325013,334.3353480310618 L134.74396138193475,340.42975678508196 M134.74396138193475,340.42975678508196 L121.94956755933049,347.09335816934436 M121.94956755933049,347.09335816934436 L110.01851729599002,354.29048850835267 M110.01851729599002,354.29048850835267 L99.01812665396812,361.98244692588736 M99.01812665396812,361.98244692588736 L89.01081292470553,370.1278413330073 M89.01081292470553,370.1278413330073 L80.05397545815043,378.6825174807827 M80.05397545815043,378.6825174807827 L72.199508728316,387.59998963927916 M72.199508728316,387.59998963927916 L65.49344817432643,396.8315430394402 M65.49344817432643,396.8315430394402 L59.97579857349058,406.3265397822781 M59.97579857349058,406.3265397822781 L55.680188511681195,416.0326328440758 M55.680188511681195,416.0326328440758 L52.63359073613702,425.8960734263934 M52.63359073613702,425.8960734263934 L50.85617962912636,435.86194299280123 M50.85617962912636,435.86194299280123 L50.36111686870049,445.87448024770265 M50.36111686870049,445.87448024770265 L51.15443121621149,455.8773905664332 M51.15443121621149,455.8773905664332 L53.234816481529435,465.81415861648236 M53.234816481529435,465.81415861648236 L56.593704262138885,475.6283642320501 M56.593704262138885,475.6283642320501 L61.21519022999439,485.26395980032544 M61.21519022999439,485.26395980032544 L67.07596971194602,494.66572998780157 M67.07596971194602,494.66572998780157 L74.14554881295885,503.7794941608946 M74.14554881295885,503.7794941608946 L82.38623459102143,512.5525199742098 M82.38623459102143,512.5525199742098 L91.75343118126926,520.9337791449793 M91.75343118126926,520.9337791449793 L102.19566387762472,528.8743810923521 M102.19566387762472,528.8743810923521 L113.65504957561274,536.3277572795457 M114.7320557203688,589.191701777373 L127.11706275104393,596.1286791475266 M127.11706275104393,596.1286791475266 L140.38301269453626,602.4924979578977 M140.38301269453626,602.4924979578977 L154.454557998905,608.2455045393812 M154.454557998905,608.2455045393812 L169.25145500303412,613.3535020179478 M169.25145500303412,613.3535020179478 L184.6888131050468,617.7861063462601 M184.6888131050468,617.7861063462601 L200.67779903847395,621.5168485162687 M200.67779903847395,621.5168485162687 L217.12605357180993,624.5234359962402 M217.12605357180993,624.5234359962402 L233.9384063290144,626.7878369523635 M233.9384063290144,626.7878369523635 L251.01724560005357,628.296488934886 M251.01724560005357,628.296488934886 L268.26335623002785,629.0403469530787 M268.26335623002785,629.0403469530787 L285.5764640163667,629.0149157205664 M285.5764640163667,629.0149157205664 L302.85586170784256,628.2203637085034 M302.85586170784256,628.2203637085034 L320.001049713924,626.6614646240286 M320.001049713924,626.6614646240286 L336.91238336596257,624.3475781085139 M336.91238336596257,624.3475781085139 L353.49176289394757,621.2925640111672 M353.49176289394757,621.2925640111672 L369.64316535926804,617.5147259061357 M369.64316535926804,617.5147259061357 L385.27331379577834,613.036662752197 M385.27331379577834,613.036662752197 L400.29218586740365,607.8850667026569 M400.29218586740365,607.8850667026569 L414.6136793000993,602.0906158466187 M414.6136793000993,602.0906158466187 L428.1559193898374,595.6877410087947 M428.1559193898374,595.6877410087947 L440.842133320542,588.7143105377016 M440.842133320542,588.7143105377016 L452.6006341740553,581.2115133500242 M452.6006341740553,581.2115133500242 L463.36552526933315,573.2234360239686 M463.36552526933315,573.2234360239686 L473.07701218537755,564.7969036672691 M473.07701218537755,564.7969036672691 L481.68166807759013,555.9810705680363 M481.68166807759013,555.9810705680363 L489.1327191380323,546.8271821023211 M489.1327191380323,546.8271821023211 L495.39030108779946,537.3881838633172 M495.39030108779946,537.3881838633172 L500.421596699181,527.7184409770846 M500.421596699181,527.7184409770846 L504.20101741904756,517.873369733764 M504.20101741904756,517.873369733764 L506.71019887650965,507.9091597247286 M506.71019887650965,507.9091597247286 L507.93810630092,497.8823632607907 M507.93810630092,497.8823632607907 L507.8810193381481,487.84963339185083 M507.8810193381481,487.84963339185083 L506.54248908354106,477.8673302400422 M506.54248908354106,477.8673302400422 L503.9331524673815,467.9913221010057 M503.9331524673815,467.9913221010057 L500.070762060062,458.2765466693826 M500.070762060062,458.2765466693826 L494.97989175221215,448.77680256910935 M113.65504957561274,536.3277572795457 L126.06739868380009,543.2500908779763 M126.06739868380009,543.2500908779763 L139.36276090112005,549.6004915517337 M139.36276090112005,549.6004915517337 L153.46562036145428,555.3413808368939 M153.46562036145428,555.3413808368939 L168.2955524744419,560.4386298712361 M168.2955524744419,560.4386298712361 L183.76747369446772,564.8619147940333 M183.76747369446772,564.8619147940333 L199.7923474787209,568.5848188543941 M199.7923474787209,568.5848188543941 L216.27760203584526,571.5850933992 M216.27760203584526,571.5850933992 L233.12784691010398,573.8447420057579 M233.12784691010398,573.8447420057579 L250.24524378910365,575.3502288028958 M250.24524378910365,575.3502288028958 L267.53034647957827,576.0925265014827 M267.53034647957827,576.0925265014827 L284.8826467413253,576.0671486102353 M284.8826467413253,576.0671486102353 L302.2012019114513,575.2742632686858 M302.2012019114513,575.2742632686858 L319.3852772860533,573.7186348477331 M319.3852772860533,573.7186348477331 L336.3349950634741,571.4096046680696 M336.3349950634741,571.4096046680696 L352.9520260953225,568.361005414244 M352.9520260953225,568.361005414244 L369.1401232212996,564.5911047127661 M369.1401232212996,564.5911047127661 L384.80579210919257,560.1224570290198 M384.80579210919257,560.1224570290198 L399.8588012275749,554.9817018131866 M399.8588012275749,554.9817018131866 L414.2128489171897,549.199456365661 M414.2128489171897,549.199456365661 L427.78587170525805,542.810083016013 M427.78587170525805,542.810083016013 L440.5009206801135,535.8513744569419 M440.5009206801135,535.8513744569419 L452.2861455076803,528.3644369125274 M452.2861455076803,528.3644369125274 L463.07550037906464,520.3932680005448 M463.07550037906464,520.3932680005448 L472.80905671427604,511.9845978148809 M472.80905671427604,511.9845978148809 L481.43326902825754,503.1874803254183 M481.43326902825754,503.1874803254183 L488.90126095099504,494.0530556805096 M488.90126095099504,494.0530556805096 L495.17308218920766,484.6341600661094 M495.17308218920766,484.6341600661094 L500.2158462224373,474.9850455308182 M500.2158462224373,474.9850455308182 L504.00391217956377,465.16101232816163 M504.00391217956377,465.16101232816163 L506.51888016259124,455.2181315885223 M506.51888016259124,455.2181315885223 L507.749696716857,445.2128355737667 M507.749696716857,445.2128355737667 L507.6926394179479,435.20165623438527 M507.6926394179479,435.20165623438527 L506.35127361172573,425.24083238137547 M506.35127361172573,425.24083238137547 L503.7362661861589,415.38611122668374 M503.7362661861589,415.38611122668374 L499.86541525421893,405.6923105821556 M499.86541525421893,405.6923105821556 L494.7633549937158,396.2131108852991 M303.3392251573572,480.2993017318345 L302.6936226516121,427.66756749978197 M256.3191486094451,507.4463555840882 L255.56671312250387,454.7563190166902 M303.3392251573572,480.2993017318345 L307.3387780785187,483.20232161213596 M307.3387780785187,483.20232161213596 L310.2848745019728,486.5160729659975 M310.2848745019728,486.5160729659975 L312.0636697770859,490.11375811337734 M312.0636697770859,490.11375811337734 L312.6058057079647,493.8575175943896 M312.6058057079647,493.8575175943896 L311.8893040860013,497.60361711236794 M311.8893040860013,497.60361711236794 L309.940599527175,501.2079438545943 M309.940599527175,501.2079438545943 L306.8335995394196,504.5316239264057 M306.8335995394196,504.5316239264057 L302.6870866603498,507.4463555840882 M302.6870866603498,507.4463555840882 L297.6601477473139,509.83948739760194 M297.6601477473139,509.83948739760194 L291.9462651735273,511.61835088630585 M291.9462651735273,511.61835088630585 L285.76566025991497,512.7140295721842 M285.76566025991497,512.7140295721842 L279.35681925784127,513.0840404376007 M279.35681925784127,513.0840404376007 L272.96719528205233,512.7140204824677 M272.96719528205233,512.7140204824677 L266.843437688943,511.6183453685528 M266.843437688943,511.6183453685528 L261.22185718101,509.8394864241682 M261.22185718101,509.8394864241682 L256.3191486094451,507.4463555840882 M302.6936226516121,427.66756749978197 L306.70196418021544,430.5643396487584 M306.70196418021544,430.5643396487584 L309.6544753662495,433.8709631399662 M309.6544753662495,433.8709631399662 L311.43706214325255,437.4609143000873 M311.43706214325255,437.4609143000873 L311.9802161748794,441.1966308778892 M311.9802161748794,441.1966308778892 L311.2619150025509,444.93468767365187 M311.2619150025509,444.93468767365187 L309.30865739447546,448.53128099183186 M309.30865739447546,448.53128099183186 L306.1945215023966,451.84783406788074 M306.1945215023966,451.84783406788074 L302.03856131435106,454.7563190166902 M302.03856131435106,454.7563190166902 L297.0002257117375,457.14432434624416 M297.0002257117375,457.14432434624416 L291.2734362875524,458.91937859289555 M291.2734362875524,458.91937859289555 L285.0789133114045,460.0127115870722 M285.0789133114045,460.0127115870722 L278.6556822855321,460.3819304126995 M278.6556822855321,460.3819304126995 L272.2517545171935,460.01270251681365 M272.2517545171935,460.01270251681365 L266.1143340620918,458.9193730869563 M266.1143340620918,458.9193730869563 L260.48026099912994,457.1443233748954 M260.48026099912994,457.1443233748954 L255.56671312250387,454.7563190166902 M256.3191486094451,507.4463555840882 L252.32385866565397,504.5316274925186 M252.32385866565397,504.5316274925186 L249.38934525364058,501.2079415865021 M249.38934525364058,501.2079415865021 L247.62768948522614,497.60360804542995 M247.62768948522614,497.60360804542995 L247.1055891739886,493.8575279501556 M247.1055891739886,493.8575279501556 L247.8420055006625,490.11376975636585 M247.8420055006625,490.11376975636585 L249.80748715034287,486.5160810465708 M249.80748715034287,486.5160810465708 L252.9255545693563,483.2023355030634 M252.9255545693563,483.2023355030634 L257.07577616544785,480.2993017318345 M257.07577616544785,480.2993017318345 L262.09839828449094,477.917909242586 M262.09839828449094,477.917909242586 L267.80069790442656,476.1489803121897 M267.80069790442656,476.1489803121897 L273.964181233815,475.0599396817677 M273.964181233815,475.0599396817677 L280.35298652008447,474.6922494722472 M280.35298652008447,474.6922494722472 L286.72269579323273,475.0599280679013 M286.72269579323273,475.0599280679013 L292.82965833442114,476.1489754722013 M292.82965833442114,476.1489754722013 L298.4401713924225,477.9178998825199 M298.4401713924225,477.9178998825199 L303.3392251573572,480.2993017318345 M255.56671312250387,454.7563190166902 L251.5626544010675,451.8478376263489 M251.5626544010675,451.8478376263489 L248.62177872038103,448.53127872860443 M248.62177872038103,448.53127872860443 L246.85640861576695,444.934678626174 M246.85640861576695,444.934678626174 L246.33338017758544,441.19664121141454 M246.33338017758544,441.19664121141454 L247.0716852145127,437.4609259180546 M247.0716852145127,437.4609259180546 L249.04179471990318,433.8709712031631 M249.04179471990318,433.8709712031631 L252.16704706716126,430.564353509798 M252.16704706716126,430.564353509798 L256.3267318315943,427.66756749978197 M256.3267318315943,427.66756749978197 L261.360730688337,425.29130245792334 M261.360730688337,425.29130245792334 L267.0758846651063,423.5261836240855 M267.0758846651063,423.5261836240855 L273.2532089319376,422.43948925634777 M273.2532089319376,422.43948925634777 L279.6563142675552,422.0725913093666 M279.6563142675552,422.0725913093666 L286.0402381731663,422.439477667505 M286.0402381731663,422.439477667505 L292.1607887289409,423.5261787945236 M292.1607887289409,423.5261787945236 L297.78374531805747,425.2912931180148 M297.78374531805747,425.2912931180148 L302.6936226516121,427.66756749978197" stroke="black"  stroke-width="4"  fill="red"/></svg>